<svg width="32" height="32" xmlns="http://www.w3.org/2000/svg">

 <g>
  <title>background</title>
  <rect fill="none" id="canvas_background" height="34" width="34" y="-1" x="-1"/>
 </g>
 <g>
  <title>Layer 1</title>
  <path id="svg_2" fill-rule="evenodd" fill="#3498D8" d="m30,5.5l-28,0c-1.1,0 -2,0.9 -2,2l0,17c0,1.1 0.9,2 2,2l28,0c1.1,0 2,-0.9 2,-2l0,-17c0,-1.1 -0.9,-2 -2,-2z" clip-rule="evenodd"/>
  <path id="svg_4" fill-rule="evenodd" fill="#FFFFFF" d="m6.75,16.3l1.6,0l-0.8,-2l-0.8,2zm22.3,-3.8l-4.1,0l-1,1.1l-0.9,-1.1l-8.7,0l-0.8,1.8l-0.8,-1.8l-3.5,0l0,0.8l-0.4,-0.8l-3,0l-2.9,7l3.5,0l0.4,-1.1l1,0l0.4,1.1l3.9,0l0,-0.8l0.3,0.8l2,0l0.3,-0.9l0,0.9l8,0l1,-1.1l0.9,1.1l4.1,0l-2.6,-3.5l2.9,-3.5zm-12.1,6l-1.1,0l0,-3.9l-1.7,3.9l-1,0l-1.7,-3.9l0,3.9l-2.3,0l-0.4,-1.1l-2.4,0l-0.4,1.1l-1.3,0l2.1,-5l1.7,0l1.9,4.7l0,-4.7l1.9,0l1.5,3.4l1.4,-3.4l1.9,0l0,5l-0.1,0zm9.9,0l-1.5,0l-1.3,-1.7l-1.5,1.7l-4.5,0l0,-5l4.6,0l1.4,1.6l1.5,-1.6l1.4,0l-2.2,2.5l2.1,2.5zm-7.7,-4l0,0.9l2.5,0l0,1l-2.5,0l0,1l2.8,0l1.3,-1.5l-1.2,-1.4l-2.9,0z" clip-rule="evenodd"/>
 </g>
</svg>