<svg width="250px" height="249px" viewBox="0 0 250 249" version="1.1" xmlns="http://www.w3.org/2000/svg" xmlns:xlink="http://www.w3.org/1999/xlink">
    <defs>
        <polygon id="path-1" points="0 248.022523 249.700893 248.022523 249.700893 0 0 0"></polygon>
    </defs>
    <g id="Page-1" stroke="none" stroke-width="1" fill="none" fill-rule="evenodd">
        <g id="Home" transform="translate(-895.000000, -1374.000000)">
            <g id="Page-1" transform="translate(895.000000, 1374.000000)">
                <path d="M234.447545,134.854505 C234.447545,196.219369 185.146205,245.964865 124.329241,245.964865 C63.5122768,245.964865 14.2087054,196.219369 14.2087054,134.854505 C14.2087054,73.4896396 63.5122768,23.7441441 124.329241,23.7441441 C185.146205,23.7441441 234.447545,73.4896396 234.447545,134.854505 Z" id="Fill-1" fill="#D4C2FF"></path>
                <path d="M26.2486607,173.688288 C22.675,173.055405 19.3625,170.764865 17.5366071,166.913514 C15.753125,163.152252 16.1348214,158.636486 18.5120536,155.226577 C22.628125,149.325676 30.2241071,148.53964 35.33125,152.363964 C36.26875,153.064414 37.5433036,152.945045 38.3736607,152.120721 C38.3803571,152.113964 38.3848214,152.109459 38.3915179,152.104955 C43.3379464,147.213063 51.2598214,147.640991 55.6772321,152.866216 C57.3825893,154.881982 58.3044643,157.303153 58.4741071,159.758108 C58.6370536,162.089189 60.1660714,164.035135 62.2486607,165.05991 C64.0254464,165.931532 65.5834821,167.372973 66.6415179,169.361712 C68.4629464,172.785135 68.0388393,177.093694 65.6080357,180.107207 C61.6147321,185.05991 54.4071429,184.967568 50.503125,180.35045 C49.8647321,179.593694 49.3736607,178.762613 48.9986607,177.895495 C48.55,179.555405 47.6816964,181.109459 46.39375,182.366216 C42.2933036,186.363964 35.7709821,185.994595 32.128125,181.686036 C31.0053571,180.357207 30.2933036,178.814414 29.9763393,177.217568 C29.6147321,175.377477 28.0790179,174.012613 26.2486607,173.688288" id="Fill-3" fill="#FFFFFF"></path>
                <path d="M49.2988839,190.80991 C53.3524554,189.093694 56.6627232,185.492342 57.7966518,180.447297 C58.9060268,175.521622 57.2542411,170.285135 53.5377232,166.897748 C47.1069196,161.037387 37.9216518,162.163514 32.9015625,168.062162 C31.9796875,169.145495 30.4417411,169.348198 29.2386161,168.598198 C29.2319196,168.593694 29.2229911,168.586937 29.2162946,168.582432 C22.0712054,164.140991 12.8212054,166.787387 8.98638393,174.159009 C7.50870536,177.001351 7.06227679,180.111712 7.5109375,183.05991 C7.93950893,185.859459 6.6515625,188.573423 4.45959821,190.345946 C2.59129464,191.857207 1.13370536,193.981081 0.410491071,196.618468 C-0.8328125,201.156757 0.812276786,206.134234 4.48415179,209.03964 C10.5198661,213.814414 19.0131696,211.753604 22.4015625,205.242342 C22.9573661,204.174775 23.3167411,203.05991 23.5287946,201.933784 C24.4975446,203.773874 25.9395089,205.377477 27.7966518,206.512613 C33.7029018,210.127477 41.3122768,207.929279 44.4752232,201.85045 C45.4484375,199.976577 45.8814732,197.963063 45.8301339,195.987838 C45.7698661,193.715315 47.2207589,191.688288 49.2988839,190.80991" id="Fill-5" fill="#FFFFFF"></path>
                <path d="M151.666741,174.352027 C158.827455,173.797973 166.24933,171.401577 170.892188,165.872297 C174.876563,161.126802 176.316295,154.622297 176.09308,148.406081 C175.867634,142.189865 174.135491,136.140315 172.416741,130.167342 C171.122098,125.669595 169.762723,121.043468 166.87433,117.376802 C163.985938,113.712387 159.153348,111.194369 154.67567,112.433108 C146.64442,114.658333 145.49933,125.960135 139.23817,131.50518 C135.450223,134.858784 130.066295,135.809234 126.090848,138.933108 C118.434598,144.948874 118.773884,157.761937 125.135491,165.153829 C131.497098,172.543468 141.992634,175.102027 151.666741,174.352027" id="Fill-7" fill="#FFFFFF"></path>
                <path d="M155.819643,231.34009 C162.980357,230.786036 170.402232,228.38964 175.045089,222.86036 C179.029464,218.114865 180.469196,211.61036 180.245982,205.394144 C180.020536,199.177928 178.288393,193.128378 176.569643,187.155405 C175.275,182.657658 173.915625,178.031532 171.027232,174.364865 C168.138839,170.70045 163.30625,168.182432 158.828571,169.421171 C150.797321,171.646396 149.652232,182.948198 143.391071,188.493243 C139.603125,191.846847 134.219196,192.797297 130.24375,195.921171 C122.5875,201.936937 122.926786,214.75 129.288393,222.141892 C135.65,229.531532 146.145536,232.09009 155.819643,231.34009" id="Fill-9" fill="#FFFFFF"></path>
                <path d="M154.158482,242.23491 C161.319196,241.680856 168.741071,239.284459 173.383929,233.75518 C177.368304,229.009685 178.808036,222.50518 178.584821,216.288964 C178.359375,210.072748 176.627232,204.023198 174.908482,198.050225 C173.613839,193.552477 172.254464,188.926351 169.366071,185.259685 C166.477679,181.59527 161.645089,179.077252 157.167411,180.315991 C149.136161,182.541216 147.991071,193.843018 141.729911,199.388063 C137.941964,202.741667 132.558036,203.692117 128.582589,206.815991 C120.926339,212.831757 121.265625,225.64482 127.627232,233.036712 C133.988839,240.426351 144.484375,242.98491 154.158482,242.23491" id="Fill-11" fill="#FFFFFF"></path>
                <path d="M17.8330357,200.742117 C16.6946429,201.577703 15.7370536,202.57545 14.9066964,203.881757 C12.571875,207.559685 13.30625,212.809685 16.7638393,215.440315 C20.2928571,218.122748 25.2035714,218.134009 29.3821429,216.746622 C32.4,215.744369 35.3375,213.922297 36.7549107,211.050676 C37.5071429,209.523649 37.9223214,207.744369 38.0696429,206.037162 C38.1946429,204.611486 38.0183036,203.221847 37.6566964,201.737613 C37.1745536,199.760135 36.1075893,198.084459 34.6857143,196.852477 C34.4133929,196.615991 34.1790179,196.347973 33.9647321,196.068694 C33.8665179,195.893018 33.7660714,195.717342 33.6678571,195.543919 C33.5383929,195.320946 33.4089286,195.095721 33.2794643,194.872748 C32.8910714,193.931306 32.759375,192.884009 32.9357143,191.845721 C33.1276786,190.706081 33.0696429,189.503378 32.7191964,188.309685 C31.6120536,184.557432 27.9714286,182.224099 24.1366071,182.82545 C19.5875,183.539414 16.7147321,187.998874 17.790625,192.411036 C18.0205357,193.350225 18.4089286,194.206081 18.9223214,194.960586 C19.3821429,195.638514 19.5875,196.460586 19.5763393,197.282658 L19.5741071,197.438063 C19.5607143,198.760135 18.8910714,199.96509 17.8330357,200.742117" id="Fill-13" fill="#FFFFFF"></path>
                <path d="M15.3886161,224.908333 C14.2502232,225.743919 13.2926339,226.741667 12.4622768,228.047973 C10.1274554,231.725901 10.8618304,236.975901 14.3194196,239.606532 C17.8484375,242.288964 22.7591518,242.300225 26.9377232,240.912838 C29.9555804,239.910586 32.8930804,238.088514 34.3104911,235.216892 C35.0627232,233.689865 35.4779018,231.910586 35.6252232,230.203378 C35.7502232,228.777703 35.5738839,227.388063 35.2122768,225.903829 C34.7301339,223.926351 33.6631696,222.250676 32.2412946,221.018694 C31.9689732,220.782207 31.7345982,220.514189 31.5203125,220.23491 C31.4220982,220.059234 31.3216518,219.883559 31.2234375,219.710135 C31.0939732,219.487162 30.9645089,219.261937 30.8350446,219.038964 C30.4466518,218.097523 30.3149554,217.050225 30.4912946,216.011937 C30.6832589,214.872297 30.6252232,213.669595 30.2747768,212.475901 C29.1676339,208.723649 25.5270089,206.390315 21.6921875,206.991667 C17.1430804,207.705631 14.2703125,212.16509 15.3462054,216.577252 C15.5761161,217.516441 15.9645089,218.372297 16.4779018,219.126802 C16.9377232,219.80473 17.1430804,220.626802 17.1319196,221.448874 L17.1296875,221.604279 C17.1162946,222.926351 16.4466518,224.131306 15.3886161,224.908333" id="Fill-15" fill="#FFFFFF"></path>
                <mask id="mask-2" fill="white">
                    <use xlink:href="#path-1"></use>
                </mask>
                <g id="Clip-18"></g>
                <polygon id="Fill-17" fill="#D9D2FF" mask="url(#mask-2)" points="37.3348214 243.702703 113.8125 243.702703 113.8125 152.423423 37.3348214 152.423423"></polygon>
                <polygon id="Fill-19" fill="#B2A1FF" mask="url(#mask-2)" points="37.2433036 160.304054 113.8125 160.304054 113.8125 156.592342 37.2433036 156.592342"></polygon>
                <polygon id="Fill-20" fill="#42337E" mask="url(#mask-2)" points="165.584598 152.331081 140.517634 104.238739 132.341295 117.963964 151.218527 152.331081"></polygon>
                <polygon id="Fill-21" fill="#B2A1FF" mask="url(#mask-2)" points="158.591741 243.703153 158.591741 152.32027 113.723438 152.423874 113.723438 243.703153"></polygon>
                <polygon id="Fill-22" fill="#B2A1FF" mask="url(#mask-2)" points="158.563393 152.451577 114.056696 152.451577 135.675 107.361486"></polygon>
                <polygon id="Fill-23" fill="#B2A1FF" mask="url(#mask-2)" points="113.815625 243.703153 113.815625 187.95991 92.6950893 178.818018 92.6950893 243.703153"></polygon>
                <polygon id="Fill-24" fill="#A18CFF" mask="url(#mask-2)" points="113.815625 196.413288 113.815625 187.958333 92.6950893 178.816441 92.6950893 196.413288"></polygon>
                <polygon id="Fill-25" fill="#826BE8" mask="url(#mask-2)" points="113.796652 157.784234 143.479688 102.831532 141.640402 99.05 109.08683 157.784234"></polygon>
                <polygon id="Fill-26" fill="#A18CFF" mask="url(#mask-2)" points="113.779241 160.396171 139.087277 114.069595 138.26808 112.38491 113.779241 157.646171"></polygon>
                <polygon id="Fill-27" fill="#826BE8" mask="url(#mask-2)" points="168.344866 152.331081 142.458705 100.768018 138.199777 100.801802 164.157366 152.331081"></polygon>
                <polygon id="Fill-28" fill="#826BE8" mask="url(#mask-2)" points="88.0316964 151.872973 81.9 151.872973 109.558482 190.913514 116.029464 190.913514"></polygon>
                <polygon id="Fill-29" fill="#9F7AEC" mask="url(#mask-2)" points="113.793527 153.797523 141.675223 99.0835586 54.4430804 98.9394144 28.1618304 153.155631"></polygon>
                <polygon id="Fill-30" fill="#826BE8" mask="url(#mask-2)" points="28.2522321 157.783784 113.767857 157.783784 113.767857 153.155405 28.2522321 153.155405"></polygon>
                <polygon id="Fill-31" fill="#42337E" mask="url(#mask-2)" points="54.4794643 137.91982 18.1714286 194.214865 38.3008929 194.282432 68.8209821 148.985135"></polygon>
                <polygon id="Fill-32" fill="#9F7AEC" mask="url(#mask-2)" points="18.2430804 194.348874 57.2720982 135.375901 54.9573661 131.801577 15.6716518 191.436712"></polygon>
                <polygon id="Fill-33" fill="#D9D2FF" mask="url(#mask-2)" points="87.9294643 184.247297 30.4339286 184.247297 58.0477679 142.272072"></polygon>
                <polygon id="Fill-34" fill="#D9D2FF" mask="url(#mask-2)" points="30.4330357 243.702703 87.9285714 243.702703 87.9285714 184.247748 30.4330357 184.247748"></polygon>
                <polygon id="Fill-35" fill="#9F7AEC" mask="url(#mask-2)" points="97.3303571 190.811486 56.5915179 134.50518 54.3214286 137.852027 95.046875 194.007432"></polygon>
                <polygon id="Fill-36" fill="#B2A1FF" mask="url(#mask-2)" points="92.7296875 190.754054 57.7720982 142.524324 56.9328125 143.693243 92.7296875 193.181982"></polygon>
                <polygon id="Fill-37" fill="#826BE8" mask="url(#mask-2)" points="56.5232143 134.895495 70.5924107 135.24009 109.558929 190.913514 97.3647321 190.845946"></polygon>
                <polygon id="Fill-38" fill="#42337E" mask="url(#mask-2)" points="113.336384 193.973198 95.0127232 194.006982 97.2939732 190.777252 115.92567 190.777252"></polygon>
                <polygon id="Fill-39" fill="#D9D2FF" mask="url(#mask-2)" points="84.5267857 110.617117 97.3883929 110.617117 97.3883929 86.6148649 84.5267857 86.6148649"></polygon>
                <polygon id="Fill-40" fill="#B2A1FF" mask="url(#mask-2)" points="116.231027 99.1083333 107.257812 99.0722973 97.3872768 110.651126 97.3872768 86.6488739 116.081473 86.6488739"></polygon>
                <polygon id="Fill-41" fill="#42337E" mask="url(#mask-2)" points="41.6830357 212.056306 46.8839286 212.056306 46.8839286 199.094595 41.6830357 199.094595"></polygon>
                <polygon id="Fill-42" fill="#42337E" mask="url(#mask-2)" points="48.40625 212.056306 53.6071429 212.056306 53.6071429 199.094595 48.40625 199.094595"></polygon>
                <polygon id="Fill-43" fill="#42337E" mask="url(#mask-2)" points="41.6830357 226.355856 46.8839286 226.355856 46.8839286 213.394144 41.6830357 213.394144"></polygon>
                <polygon id="Fill-44" fill="#42337E" mask="url(#mask-2)" points="48.40625 226.355856 53.6071429 226.355856 53.6071429 213.394144 48.40625 213.394144"></polygon>
                <polygon id="Fill-45" fill="#42337E" mask="url(#mask-2)" points="64.5625 212.056306 69.7633929 212.056306 69.7633929 199.094595 64.5625 199.094595"></polygon>
                <polygon id="Fill-46" fill="#42337E" mask="url(#mask-2)" points="71.2879464 212.056306 76.4888393 212.056306 76.4888393 199.094595 71.2879464 199.094595"></polygon>
                <polygon id="Fill-47" fill="#42337E" mask="url(#mask-2)" points="64.5625 226.355856 69.7633929 226.355856 69.7633929 213.394144 64.5625 213.394144"></polygon>
                <polygon id="Fill-48" fill="#42337E" mask="url(#mask-2)" points="71.2879464 226.355856 76.4888393 226.355856 76.4888393 213.394144 71.2879464 213.394144"></polygon>
                <polygon id="Fill-49" fill="#42337E" mask="url(#mask-2)" points="98.6294643 211.504505 103.830357 211.504505 103.830357 198.542793 98.6294643 198.542793"></polygon>
                <polygon id="Fill-50" fill="#42337E" mask="url(#mask-2)" points="105.354911 211.504505 110.555804 211.504505 110.555804 198.542793 105.354911 198.542793"></polygon>
                <polygon id="Fill-51" fill="#42337E" mask="url(#mask-2)" points="98.6294643 225.806306 103.830357 225.806306 103.830357 212.844595 98.6294643 212.844595"></polygon>
                <polygon id="Fill-52" fill="#42337E" mask="url(#mask-2)" points="105.354911 225.806306 110.555804 225.806306 110.555804 212.844595 105.354911 212.844595"></polygon>
                <polygon id="Fill-53" fill="#42337E" mask="url(#mask-2)" points="122.609375 211.504505 127.810268 211.504505 127.810268 198.542793 122.609375 198.542793"></polygon>
                <polygon id="Fill-54" fill="#42337E" mask="url(#mask-2)" points="129.332589 211.504505 134.533482 211.504505 134.533482 198.542793 129.332589 198.542793"></polygon>
                <polygon id="Fill-55" fill="#42337E" mask="url(#mask-2)" points="122.609375 225.806306 127.810268 225.806306 127.810268 212.844595 122.609375 212.844595"></polygon>
                <polygon id="Fill-56" fill="#42337E" mask="url(#mask-2)" points="129.332589 225.806306 134.533482 225.806306 134.533482 212.844595 129.332589 212.844595"></polygon>
                <polygon id="Fill-57" fill="#42337E" mask="url(#mask-2)" points="140.401786 211.504505 145.602679 211.504505 145.602679 198.542793 140.401786 198.542793"></polygon>
                <polygon id="Fill-58" fill="#42337E" mask="url(#mask-2)" points="147.127232 211.504505 152.328125 211.504505 152.328125 198.542793 147.127232 198.542793"></polygon>
                <polygon id="Fill-59" fill="#42337E" mask="url(#mask-2)" points="140.401786 225.806306 145.602679 225.806306 145.602679 212.844595 140.401786 212.844595"></polygon>
                <polygon id="Fill-60" fill="#42337E" mask="url(#mask-2)" points="147.127232 225.806306 152.328125 225.806306 152.328125 212.844595 147.127232 212.844595"></polygon>
                <polygon id="Fill-61" fill="#42337E" mask="url(#mask-2)" points="122.609375 170.448198 127.810268 170.448198 127.810268 157.486486 122.609375 157.486486"></polygon>
                <polygon id="Fill-62" fill="#42337E" mask="url(#mask-2)" points="129.332589 170.448198 134.533482 170.448198 134.533482 157.486486 129.332589 157.486486"></polygon>
                <polygon id="Fill-63" fill="#42337E" mask="url(#mask-2)" points="122.609375 184.747748 127.810268 184.747748 127.810268 171.786036 122.609375 171.786036"></polygon>
                <polygon id="Fill-64" fill="#42337E" mask="url(#mask-2)" points="129.332589 184.747748 134.533482 184.747748 134.533482 171.786036 129.332589 171.786036"></polygon>
                <polygon id="Fill-65" fill="#42337E" mask="url(#mask-2)" points="140.401786 170.448198 145.602679 170.448198 145.602679 157.486486 140.401786 157.486486"></polygon>
                <polygon id="Fill-66" fill="#42337E" mask="url(#mask-2)" points="147.127232 170.448198 152.328125 170.448198 152.328125 157.486486 147.127232 157.486486"></polygon>
                <polygon id="Fill-67" fill="#42337E" mask="url(#mask-2)" points="140.401786 184.747748 145.602679 184.747748 145.602679 171.786036 140.401786 171.786036"></polygon>
                <polygon id="Fill-68" fill="#42337E" mask="url(#mask-2)" points="147.127232 184.747748 152.328125 184.747748 152.328125 171.786036 147.127232 171.786036"></polygon>
                <path d="M59.8002232,166.472072 L59.8002232,160.767117 C62.7689732,161.10045 65.1238839,163.476577 65.4542411,166.472072 L59.8002232,166.472072 Z" id="Fill-69" fill="#42337E" mask="url(#mask-2)"></path>
                <path d="M58.3700893,166.472072 L52.7160714,166.472072 C53.0464286,163.476577 55.4013393,161.10045 58.3700893,160.767117 L58.3700893,166.472072 Z" id="Fill-70" fill="#42337E" mask="url(#mask-2)"></path>
                <path d="M58.3700893,167.91509 L58.3700893,173.620045 C55.4013393,173.286712 53.0464286,170.910586 52.7160714,167.91509 L58.3700893,167.91509 Z" id="Fill-71" fill="#42337E" mask="url(#mask-2)"></path>
                <path d="M59.8002232,167.91509 L65.4542411,167.91509 C65.1238839,170.910586 62.7689732,173.286712 59.8002232,173.620045 L59.8002232,167.91509 Z" id="Fill-72" fill="#42337E" mask="url(#mask-2)"></path>
                <path d="M137.769866,137.878153 L137.769866,132.173198 C140.738616,132.506532 143.093527,134.882658 143.423884,137.878153 L137.769866,137.878153 Z" id="Fill-73" fill="#42337E" mask="url(#mask-2)"></path>
                <path d="M136.339732,137.878153 L130.685714,137.878153 C131.016071,134.882658 133.370982,132.506532 136.339732,132.173198 L136.339732,137.878153 Z" id="Fill-74" fill="#42337E" mask="url(#mask-2)"></path>
                <path d="M136.339732,139.321171 L136.339732,145.026126 C133.370982,144.692793 131.016071,142.316667 130.685714,139.321171 L136.339732,139.321171 Z" id="Fill-75" fill="#42337E" mask="url(#mask-2)"></path>
                <path d="M137.769866,139.321171 L143.423884,139.321171 C143.093527,142.316667 140.738616,144.692793 137.769866,145.026126 L137.769866,139.321171 Z" id="Fill-76" fill="#42337E" mask="url(#mask-2)"></path>
                <polygon id="Fill-77" fill="#A18CFF" mask="url(#mask-2)" points="158.569196 152.354054 138.234375 112.419369 136.770089 115.169369 158.569196 157.646847"></polygon>
                <polygon id="Fill-78" fill="#B2A1FF" mask="url(#mask-2)" points="59.5205357 144.930631 57.7839286 142.525225 30.4334821 184.286486 30.4334821 188.784234"></polygon>
                <path d="M192.944643,128.149099 C188.042857,123.187387 188.054018,115.153604 192.971429,110.207658 C195.165625,108.00045 197.966964,106.838288 200.828571,106.604054 C197.252679,106.27973 193.567411,107.437387 190.826339,110.196396 C185.908929,115.144595 185.895536,123.176126 190.799554,128.14009 C193.516071,130.887838 197.167857,132.061261 200.723661,131.770721 C197.886607,131.513964 195.114286,130.345045 192.944643,128.149099" id="Fill-79" fill="#3B2D70" mask="url(#mask-2)"></path>
                <path d="M224.162723,104.059459 C227.526562,92.9063063 226.428348,78.877027 224.321205,65.4175676 C222.082366,51.1202703 213.508705,37.4671171 206.620313,26.4941441 C200.98192,17.5121622 196.109152,9.75540541 197.537723,5.93558559 C197.986384,4.73738739 199.13817,3.88153153 201.062277,3.31396396 C208.747545,1.04594595 218.52433,8.22387387 223.321205,19.6540541 C223.629241,20.386036 224.468527,20.7306306 225.196205,20.4198198 C225.923884,20.109009 226.265402,19.2621622 225.955134,18.5279279 C220.51317,5.55945946 209.466295,-2.17477477 200.258705,0.541441441 C197.452902,1.37027027 195.635937,2.84324324 194.861384,4.91756757 C192.93058,10.081982 197.903795,18.0076577 204.202902,28.0391892 C210.95067,38.7869369 219.350223,52.1608108 221.495313,65.8702703 C223.86808,81.0211712 225.298884,91.1630631 222.254241,101.072973 L224.162723,104.059459 Z" id="Fill-80" fill="#312852" mask="url(#mask-2)"></path>
                <path d="M199.861607,126.906982 C195.694196,126.900225 192.321429,123.488063 192.328125,119.283108 C192.334821,115.078153 195.71875,111.675 199.883929,111.681757 C204.051339,111.688514 207.424107,115.102928 207.417411,119.305631 C207.410714,123.510586 204.029018,126.913739 199.861607,126.906982 M220.214286,99.1322072 L179.59375,99.0691441 C179.127232,99.0691441 178.689732,99.2966216 178.421875,99.6817568 L159.004464,127.528604 C158.834821,127.769595 158.745536,128.060135 158.743304,128.35518 L158.508929,241.909234 C158.506696,242.706532 159.145089,243.35518 159.9375,243.35518 L239.433036,243.479054 C240.223214,243.479054 240.863839,242.83491 240.866071,242.037613 L241.037946,128.485811 C241.040179,128.188514 240.948661,127.897973 240.779018,127.65473 L221.383929,99.7470721 C221.116071,99.3619369 220.680804,99.1322072 220.214286,99.1322072" id="Fill-81" fill="#42337E" mask="url(#mask-2)"></path>
                <path d="M231.54308,234.343694 L168.391295,234.546396 C167.601116,234.548649 166.958259,233.904505 166.956027,233.107207 L166.647991,135.877477 C166.645759,135.08018 167.284152,134.431532 168.07433,134.429279 L231.228348,134.226577 C232.018527,134.222072 232.659152,134.866216 232.663616,135.663514 L232.96942,232.895495 C232.971652,233.692793 232.333259,234.341441 231.54308,234.343694" id="Fill-82" fill="#F5CB08" mask="url(#mask-2)"></path>
                <path d="M199.617634,126.923874 C190.09308,125.358559 189.963616,112.836036 199.58192,111.662613 C199.76942,111.637838 200.108705,111.64009 200.296205,111.664865 C209.635491,112.926126 209.735938,125.39009 200.204688,126.923874 C200.017188,126.955405 199.805134,126.955405 199.617634,126.923874 M208.827455,110.234685 C203.92567,105.272973 195.963616,105.259459 191.046205,110.207658 C186.128795,115.153604 186.115402,123.187387 191.01942,128.149099 C195.921205,133.110811 203.883259,133.124324 208.80067,128.176126 C213.71808,123.23018 213.731473,115.196396 208.827455,110.234685" id="Fill-83" fill="#F5CB08" mask="url(#mask-2)"></path>
                <path d="M226.043973,18.6990991 C225.756027,17.9558559 224.921205,17.5954955 224.18683,17.8905405 C223.452455,18.1833333 223.09308,19.0234234 223.385491,19.7644144 C227.247098,29.5752252 226.162277,42.5594595 220.483705,54.4963964 L220.001563,55.5099099 C204.729241,87.6045045 191.503795,117.070721 197.372098,125.023423 C197.633259,125.377027 197.96808,125.73964 198.39442,126.063964 C199.309598,126.757658 200.36317,127.431081 202.153348,126.651802 C203.586384,126.025676 205.291741,124.365766 205.291741,124.365766 C202.695759,125.21036 200.325223,124.192342 199.668973,123.30045 C194.349777,116.086486 212.713616,77.4918919 222.579688,56.7576577 L223.06183,55.7463964 C229.08192,43.0954955 230.195759,29.2463964 226.043973,18.6990991" id="Fill-84" fill="#312852" mask="url(#mask-2)"></path>
                <path d="M183.094643,206.49482 C182.947321,206.382207 182.820089,206.242568 182.721875,206.073649 C182.317857,205.386712 182.545536,204.501577 183.226339,204.096171 C192.826786,198.384459 195.748661,193.370946 194.009821,185.602928 C193.753125,184.454279 193.3625,183.071396 192.929464,181.551126 C190.907143,174.415991 188.137054,164.643468 193.295536,159.87545 C197.574554,155.922748 203.454018,154.751577 208.275446,156.897973 C211.866964,158.49482 214.007589,161.690766 214.003125,165.440766 C214.000893,166.240315 213.360268,166.884459 212.570089,166.882207 C211.777679,166.879955 211.139286,166.233559 211.141518,165.436261 C211.145982,162.828153 209.677232,160.679505 207.121429,159.542117 C204.020982,158.161486 199.141518,158.388964 195.228571,162.003829 C191.373661,165.566892 193.965179,174.708784 195.681696,180.758333 C196.128125,182.337162 196.536607,183.774099 196.802232,184.967793 C198.822321,193.99482 195.308929,200.258333 184.679464,206.582658 C184.168304,206.888964 183.543304,206.83491 183.094643,206.49482" id="Fill-85" fill="#312852" mask="url(#mask-2)"></path>
                <path d="M182.898214,206.495946 C182.55,206.232432 182.324554,205.813514 182.324554,205.342793 C182.324554,204.545495 182.962946,203.896847 183.753125,203.896847 L212.016518,203.840541 C212.808929,203.838288 213.447321,204.484685 213.449554,205.281982 C213.451786,206.079279 212.813393,206.725676 212.023214,206.727928 L183.757589,206.784234 C183.436161,206.784234 183.137054,206.676126 182.898214,206.495946" id="Fill-86" fill="#312852" mask="url(#mask-2)"></path>
                <path d="M182.93125,184.734685 C182.583036,184.471171 182.357589,184.05 182.357589,183.577027 C182.359821,182.77973 183.000446,182.135586 183.790625,182.135586 L207.328571,182.171622 C208.11875,182.173874 208.757143,182.822523 208.754911,183.617568 C208.754911,184.414865 208.114286,185.059009 207.321875,185.059009 L183.786161,185.022973 C183.464732,185.022973 183.170089,184.914865 182.93125,184.734685" id="Fill-87" fill="#312852" mask="url(#mask-2)"></path>
                <path d="M199.155134,190.591216 C199.251116,189.212838 199.137277,187.753378 198.885045,186.230856 L198.677455,186.230856 C199.016741,187.76464 199.146205,189.201577 199.155134,190.591216" id="Fill-88" fill="#54458D" mask="url(#mask-2)"></path>
                <path d="M184.96875,57.8691441 C184.604911,62.4524775 180.908482,66.0740991 176.323661,66.2790541 L176.323661,66.3578829 C180.908482,66.5628378 184.604911,70.1867117 184.96875,74.7677928 C185.332589,70.1867117 189.029018,66.5628378 193.613839,66.3578829 L193.613839,66.2790541 C189.029018,66.0740991 185.332589,62.4524775 184.96875,57.8691441" id="Fill-89" fill="#FFFFFF" mask="url(#mask-2)"></path>
                <path d="M135.766295,49.4576577 C135.569866,51.9351351 133.572098,53.8945946 131.092187,54.004955 L131.092187,54.0477477 C133.572098,54.1581081 135.569866,56.1175676 135.766295,58.595045 C135.962723,56.1175676 137.960491,54.1581081 140.440402,54.0477477 L140.440402,54.004955 C137.960491,53.8945946 135.962723,51.9351351 135.766295,49.4576577" id="Fill-90" fill="#FFFFFF" mask="url(#mask-2)"></path>
                <path d="M127.010491,27.9867117 C126.896652,29.4101351 125.74933,30.5362613 124.322991,30.6015766 L124.322991,30.6240991 C125.74933,30.6894144 126.896652,31.8155405 127.010491,33.238964 C127.12433,31.8155405 128.271652,30.6894144 129.697991,30.6240991 L129.697991,30.6015766 C128.271652,30.5362613 127.12433,29.4101351 127.010491,27.9867117" id="Fill-91" fill="#FFFFFF" mask="url(#mask-2)"></path>
                <path d="M95.8263393,79.1036036 C95.7125,80.527027 94.5651786,81.6531532 93.1388393,81.7184685 L93.1388393,81.740991 C94.5651786,81.8063063 95.7125,82.9324324 95.8263393,84.3558559 C95.9401786,82.9324324 97.0875,81.8063063 98.5138393,81.740991 L98.5138393,81.7184685 C97.0875,81.6531532 95.9401786,80.527027 95.8263393,79.1036036" id="Fill-92" fill="#FFFFFF" mask="url(#mask-2)"></path>
                <path d="M77.6033482,45.8882883 C77.5118304,47.0572072 76.5676339,47.9806306 75.3979911,48.0346847 L75.3979911,48.054955 C76.5676339,48.1067568 77.5118304,49.0301802 77.6033482,50.1990991 C77.6948661,49.0301802 78.6390625,48.1067568 79.8087054,48.054955 L79.8087054,48.0346847 C78.6390625,47.9806306 77.6948661,47.0572072 77.6033482,45.8882883" id="Fill-93" fill="#FFFFFF" mask="url(#mask-2)"></path>
                <path d="M155.817187,70.2702703 C155.25692,77.3400901 149.553795,82.9301802 142.480134,83.2454955 L142.480134,83.3671171 C149.553795,83.6846847 155.25692,89.2747748 155.817187,96.3445946 C156.377455,89.2747748 162.08058,83.6846847 169.154241,83.3671171 L169.154241,83.2454955 C162.08058,82.9301802 156.377455,77.3400901 155.817187,70.2702703" id="Fill-94" fill="#FFFFFF" mask="url(#mask-2)"></path>
                <path d="M42.3658482,93.0175676 C42.1694196,95.495045 40.1716518,97.4545045 37.6917411,97.5648649 L37.6917411,97.6076577 C40.1716518,97.718018 42.1694196,99.6774775 42.3658482,102.154955 C42.5622768,99.6774775 44.5600446,97.718018 47.0399554,97.6076577 L47.0399554,97.5648649 C44.5600446,97.4545045 42.5622768,95.495045 42.3658482,93.0175676" id="Fill-95" fill="#FFFFFF" mask="url(#mask-2)"></path>
                <path d="M177.784375,38.5333333 C177.692857,39.7022523 176.748661,40.6256757 175.579018,40.6797297 L175.579018,40.7 C176.748661,40.7518018 177.692857,41.6752252 177.784375,42.8441441 C177.875893,41.6752252 178.820089,40.7518018 179.989732,40.7 L179.989732,40.6797297 C178.820089,40.6256757 177.875893,39.7022523 177.784375,38.5333333" id="Fill-96" fill="#FFFFFF" mask="url(#mask-2)"></path>
                <path d="M73.3401786,64.2198198 C73.0209821,68.2558559 69.7642857,71.445045 65.7285714,71.6274775 L65.7285714,71.695045 C69.7642857,71.8774775 73.0209821,75.0666667 73.3401786,79.1027027 C73.659375,75.0666667 76.9160714,71.8774775 80.9517857,71.695045 L80.9517857,71.6274775 C76.9160714,71.445045 73.659375,68.2558559 73.3401786,64.2198198" id="Fill-97" fill="#FFFFFF" mask="url(#mask-2)"></path>
                <path d="M38.3794643,209.172297 C40.4263393,206.688063 41.5602679,203.413288 41.265625,199.865991 C40.7433036,193.613739 35.6875,188.595721 29.484375,188.163288 C22.046875,187.64527 15.8526786,193.582207 15.8526786,200.976351 C15.8526786,203.748874 16.7232143,206.316441 18.2053571,208.415541 C19.6897321,210.51464 19.9241071,213.248874 18.90625,215.613739 C18.2857143,217.057432 17.9732143,218.670045 18.0535714,220.363739 C18.3058036,225.724099 22.6026786,230.125 27.9107143,230.456081 C34.0357143,230.838964 39.1227679,225.940315 39.1227679,219.841216 C39.1227679,217.994369 38.65625,216.260135 37.8370536,214.746622 C36.859375,212.947072 37.0803571,210.751126 38.3794643,209.172297" id="Fill-98" fill="#BFB0FF" mask="url(#mask-2)"></path>
                <path d="M29.2178571,243.703153 L29.2178571,204.468919 C29.2178571,204.115315 28.9321429,203.827027 28.5816964,203.827027 C28.23125,203.827027 27.9455357,204.115315 27.9455357,204.468919 L27.9455357,243.703153 L29.2178571,243.703153 Z" id="Fill-99" fill="#5F4AB6" mask="url(#mask-2)"></path>
                <path d="M24.7165179,207.772748 L28.3348214,211.07455" id="Fill-100" fill="#5F4AB6" mask="url(#mask-2)"></path>
                <path d="M28.3339286,211.596622 C28.2111607,211.596622 28.0861607,211.551577 27.9879464,211.461486 L24.3696429,208.159685 C24.1575893,207.965991 24.1419643,207.637162 24.3339286,207.423198 C24.5258929,207.209234 24.8517857,207.191216 25.0638393,207.387162 L28.6799107,210.688964 C28.8919643,210.882658 28.9098214,211.211486 28.7178571,211.42545 C28.6151786,211.538063 28.4745536,211.596622 28.3339286,211.596622" id="Fill-101" fill="#5F4AB6" mask="url(#mask-2)"></path>
                <path d="M24.5441964,218.375 L28.1625,221.676802" id="Fill-102" fill="#5F4AB6" mask="url(#mask-2)"></path>
                <path d="M28.1616071,222.198874 C28.0388393,222.198874 27.9138393,222.153829 27.815625,222.063739 L24.1973214,218.761937 C23.9852679,218.568243 23.9696429,218.239414 24.1616071,218.02545 C24.3535714,217.811486 24.6794643,217.793468 24.8915179,217.989414 L28.5075893,221.291216 C28.7196429,221.48491 28.7375,221.813739 28.5455357,222.027703 C28.4428571,222.140315 28.3022321,222.198874 28.1616071,222.198874" id="Fill-103" fill="#5F4AB6" mask="url(#mask-2)"></path>
                <path d="M32.5542411,212.248423 L28.9359375,215.550225" id="Fill-104" fill="#5F4AB6" mask="url(#mask-2)"></path>
                <path d="M28.9368304,216.072072 C29.0595982,216.072072 29.1845982,216.027027 29.2828125,215.936937 L32.9011161,212.635135 C33.1131696,212.441441 33.1287946,212.112613 32.9368304,211.898649 C32.7448661,211.684685 32.4189732,211.666667 32.2069196,211.862613 L28.5908482,215.164414 C28.3787946,215.358108 28.3609375,215.686937 28.5529018,215.900901 C28.6555804,216.013514 28.7962054,216.072072 28.9368304,216.072072" id="Fill-105" fill="#5F4AB6" mask="url(#mask-2)"></path>
                <path d="M247.468527,248.022523 L18.6738839,248.022523 C17.4417411,248.022523 16.4417411,247.013514 16.4417411,245.77027 C16.4417411,244.527027 17.4417411,243.518018 18.6738839,243.518018 L247.468527,243.518018 C248.702902,243.518018 249.70067,244.527027 249.70067,245.77027 C249.70067,247.013514 248.702902,248.022523 247.468527,248.022523" id="Fill-106" fill="#B6ABF5" mask="url(#mask-2)"></path>
            </g>
        </g>
    </g>
</svg>