<?xml version="1.0" encoding="UTF-8"?>
<svg width="490px" height="317px" viewBox="0 0 490 317" version="1.1" xmlns="http://www.w3.org/2000/svg" xmlns:xlink="http://www.w3.org/1999/xlink">
    <title>Group</title>
    <g id="Page-1" stroke="none" stroke-width="1" fill="none" fill-rule="evenodd">
        <g id="Group">
            <path d="M427.648058,206.311884 C431.000058,212.970884 433.719058,218.278884 436.348058,223.629884 C438.518058,228.045884 437.098058,231.873884 433.657058,234.772884 C430.099058,237.767884 425.833058,237.749884 422.135058,235.115884 C418.460058,232.495884 416.758058,228.629884 418.783058,224.186884 C421.371058,218.508884 424.313058,212.991884 427.648058,206.311884 Z M430.247658,204.816784 C438.166658,205.324784 444.769658,205.324784 451.218658,206.324784 C454.975658,206.906784 457.453658,209.962784 457.828658,214.098784 C458.226658,218.486784 456.804658,222.019784 452.585658,223.836784 C448.803658,225.464784 444.693658,225.480784 442.064658,222.163784 C438.011658,217.046784 434.655658,211.377784 430.247658,204.816784 Z M424.978158,204.797284 C420.928158,211.019284 417.761158,216.227284 414.238158,221.182284 C411.679158,224.779284 406.543158,225.877284 402.616158,223.926284 C398.660158,221.960284 396.732158,218.566284 397.148158,214.189284 C397.567158,209.784284 401.283158,206.394284 405.858158,206.030284 C411.790158,205.560284 417.735158,205.256284 424.978158,204.797284 Z M414.046958,185.207984 C417.623958,190.167984 420.848958,195.382984 425.070958,201.765984 C417.255958,201.253984 410.636958,201.250984 404.174958,200.243984 C399.911958,199.577984 397.347958,196.060984 397.126958,191.670984 C396.916958,187.530984 398.907958,184.092984 402.828958,182.602984 C406.932958,181.041984 411.198958,181.260984 414.046958,185.207984 Z M452.489958,182.655584 C456.610958,184.478584 458.699958,188.589584 457.670958,193.335584 C456.661958,197.983584 453.575958,200.315584 448.866958,200.598584 C443.132958,200.942584 437.398958,201.306584 430.361958,201.742584 C434.423958,195.503584 437.509958,190.409584 440.959958,185.575584 C443.695958,181.739584 448.271958,180.789584 452.489958,182.655584 Z M433.096158,171.407884 C436.677158,174.036884 438.635158,177.778884 436.556158,182.292884 C433.942158,187.969884 431.030158,193.507884 427.645158,200.313884 C424.269158,193.537884 421.457158,188.101884 418.840158,182.574884 C416.714158,178.083884 418.493158,174.254884 421.970158,171.532884 C425.381158,168.861884 429.584158,168.829884 433.096158,171.407884 Z M353.783258,46.1046839 C365.068258,76.4586839 362.267258,105.563684 341.355258,131.161684 C326.274258,149.622684 305.956258,157.212684 282.096258,156.145684 C244.779258,154.477684 215.471258,123.005684 213.818258,84.4036839 C213.726258,82.2426839 213.585258,80.0826839 213.5291,79.0436839 C213.467258,45.0016839 231.673258,16.5316839 260.077258,5.13068388 C297.004258,-9.69431612 339.880258,8.71368388 353.783258,46.1046839 Z M218.290558,13.4352839 C222.155558,15.9062839 222.648558,18.4852839 220.291558,22.0932839 C216.197558,28.3572839 212.041558,34.5842839 208.092558,40.9382839 C205.739558,44.7232839 203.437558,45.1592839 199.545558,42.6572839 C179.673558,29.8832839 154.243558,35.5042839 141.212558,55.2942839 C128.630558,74.4042839 134.001558,100.589284 153.596558,113.315284 C167.982558,122.658284 183.146558,122.744284 198.054558,114.457284 C202.523558,111.973284 204.885558,112.648284 207.270558,116.850284 C210.882558,123.212284 214.737558,129.442284 218.646558,135.629284 C220.874558,139.156284 220.451558,141.434284 216.685558,143.715284 C204.240558,151.252284 190.821558,154.897284 172.626558,154.754284 C131.111558,154.608284 95.743558,115.570284 100.093558,70.6282839 C105.610558,13.6232839 169.939558,-17.4627161 218.290558,13.4352839 Z M89.717458,1.81658388 C96.413458,1.82058388 96.701458,2.13758388 96.727458,8.94758388 C96.749458,14.9445839 96.573458,20.9465839 96.779458,26.9365839 C96.928458,31.2425839 95.210458,32.8575839 90.906458,32.8205839 C74.415458,32.6805839 57.920458,32.9325839 41.432458,32.6665839 C36.645458,32.5895839 34.908458,33.9385839 35.283458,38.8195839 C35.690458,44.1185839 35.593458,49.4855839 35.303458,54.8005839 C35.096458,58.5845839 36.548458,59.7185839 40.154458,59.6855839 C54.128458,59.5575839 68.104458,59.6145839 82.079458,59.6415839 C89.255458,59.6565839 89.572458,60.0135839 89.579458,67.3095839 C89.585458,73.1395839 89.367458,78.9805839 89.645458,84.7975839 C89.868458,89.4735839 87.879458,90.8825839 83.443458,90.8295839 C69.119458,90.6595839 54.790458,90.8615839 40.465458,90.7115839 C36.687458,90.6725839 35.086458,91.6785839 35.288458,95.7835839 C35.615458,102.430584 35.609458,109.117584 35.290458,115.765584 C35.095458,119.827584 36.623458,120.900584 40.438458,120.866584 C56.762458,120.720584 73.088458,120.795584 89.413458,120.814584 C96.484458,120.822584 96.705458,121.057584 96.728458,128.143584 C96.746458,133.973584 96.766458,139.804584 96.719458,145.634584 C96.671458,151.780584 96.035458,152.399584 89.692458,152.403584 C62.205458,152.420584 34.718458,152.420584 7.23245799,152.402584 C1.44445799,152.398584 0.551457993,151.548584 0.542457993,145.748584 C0.504457993,122.760584 0.526457993,99.7715839 0.525457993,76.7825839 C0.524457993,54.2935839 0.512457993,31.8045839 0.530457993,9.31658388 C0.536457993,2.24958388 0.946457993,1.82158388 7.75745799,1.81658388 C35.077458,1.79858388 62.397458,1.79958388 89.717458,1.81658388 Z M282.828258,35.2026839 C261.391258,37.9646839 246.690258,56.0066839 246.057258,78.6326839 C247.231258,83.7826839 247.880258,89.1226839 249.663258,94.0526839 C260.027258,122.701684 293.340258,130.308684 313.712258,110.063684 C329.675258,94.1986839 331.161258,67.4836839 316.578258,49.5846839 C307.911258,38.9466839 296.579258,33.4306839 282.828258,35.2026839 Z" id="Combined-Shape" fill="#2459A2"></path>
            <path d="M89.820258,166.056438 C98.146258,166.154384 106.475258,166.037384 114.803258,166.106384 C120.100258,166.150384 121.402258,167.919384 119.812258,172.929384 C113.283258,193.510384 106.735258,214.084384 100.126258,234.639384 C91.995258,259.925384 83.690258,285.155384 75.727258,310.493384 C74.267258,315.137384 72.052258,316.949384 67.190258,316.586384 C61.724258,316.177384 56.196258,316.300384 50.711258,316.556384 C47.013258,316.728384 45.227258,315.032384 44.204258,311.781384 C36.588258,287.559384 28.917258,263.353384 21.296258,239.133384 C14.717258,218.226384 8.18225799,197.305384 1.63025799,176.389384 C1.13325799,174.802384 0.528257993,173.235384 0.200257993,171.613384 C-0.484742007,168.231384 0.506257993,166.062384 4.43925799,166.081384 C13.433258,166.124384 22.428258,166.157384 31.421258,166.067384 C34.852258,166.032384 35.884258,168.152384 36.743258,170.906384 C43.270258,191.825384 49.861258,212.723384 56.450258,233.622384 C57.722258,237.660384 59.075258,241.673384 60.390258,245.697384 C60.889258,245.645384 61.389258,245.593384 61.888258,245.540384 L67.3307765,226.792162 C68.2393691,223.667828 69.1499247,220.544051 70.064258,217.421384 C74.636258,201.802384 79.315258,186.214384 83.748258,170.557384 C84.705258,167.179384 86.521258,166.018384 89.820258,166.056438 Z M293.322258,165.244184 C307.039258,165.676184 320.368258,168.121184 331.988258,176.541184 C354.492258,192.848184 352.008258,240.245184 321.308258,250.648184 C319.922258,251.117184 318.614258,251.818184 316.295258,252.841184 C322.637258,262.714184 328.623258,272.065184 334.643258,281.394184 C340.507258,290.482184 346.493258,299.492184 352.203258,308.676184 C353.215258,310.302184 354.047258,313.123184 353.296258,314.453184 C352.561258,315.757184 349.712258,316.364184 347.772258,316.405184 C338.616258,316.598184 329.451258,316.357184 320.294258,316.559184 C316.822258,316.636184 314.826258,315.311184 313.149258,312.373184 C302.844258,294.318184 292.253258,276.423184 282.113258,258.277184 C279.726258,254.005184 276.397258,253.969184 272.909258,254.852184 C271.769258,255.141184 270.685258,258.171184 270.663258,259.960184 C270.487258,275.114184 270.599258,290.272184 270.547258,305.427184 C270.505258,317.941184 271.844258,316.396184 259.743258,316.485184 C253.747258,316.528184 247.749258,316.389184 241.757258,316.523184 C237.666258,316.614184 236.074251,314.677184 236.077258,310.773184 C236.104258,264.306184 236.107258,217.839184 236.074251,171.372184 C236.070258,167.033184 237.836258,165.024184 242.362258,165.056184 C259.349258,165.178184 276.351258,164.709184 293.322258,165.244184 Z M218.066858,166.125384 C224.223858,166.128384 224.668858,166.558384 224.712858,172.617384 C224.756858,178.616384 224.757858,184.615384 224.711858,190.614384 C224.667858,196.525384 223.914858,197.304384 218.076858,197.315384 C201.745858,197.346384 185.411858,197.506384 169.085858,197.215384 C164.338858,197.130384 163.030858,198.702384 163.340858,203.171384 C163.685858,208.145384 163.680858,213.182384 163.342858,218.158384 C163.036858,222.656384 164.414858,224.286384 169.153858,224.187384 C182.978858,223.895384 196.813858,224.076384 210.645858,224.088384 C217.282858,224.094384 217.523858,224.322384 217.550858,230.731384 C217.576858,236.897384 217.337858,243.073384 217.623858,249.226384 C217.844858,253.968384 215.602858,255.371384 211.342858,255.349384 C197.511858,255.275384 183.679858,255.318384 169.847858,255.326384 C163.431858,255.329384 163.426858,255.339384 163.420858,261.899384 C163.415858,268.065384 163.622858,274.240384 163.347858,280.394384 C163.177858,284.216384 164.615858,285.202384 168.249858,285.167384 C184.745858,285.010384 201.244858,285.087384 217.741858,285.107384 C223.990858,285.115384 224.672858,285.783384 224.711858,291.962384 C224.752858,298.461384 224.653858,304.961384 224.727858,311.459384 C224.768858,315.062384 223.123858,316.520384 219.559858,316.514384 C191.064858,316.462384 162.568858,316.443384 134.072858,316.525436 C129.280858,316.539384 128.754858,313.720384 128.76179,309.989384 C128.804858,286.992384 128.783858,263.995384 128.782858,240.999384 C128.782858,218.335384 128.765858,195.672384 128.791858,173.008384 C128.799858,166.577384 129.268858,166.129384 135.578858,166.126384 C163.074858,166.113384 190.570858,166.114384 218.066858,166.125384 Z M474.111536,307.640881 L474.636536,307.645439 C475.330459,307.658698 476.035431,307.665328 476.751453,307.665328 C476.963608,307.665328 477.175762,307.663118 477.387917,307.658698 L477.709464,307.653726 L477.709464,307.653726 L478.037641,307.652068 L478.117199,307.678588 L478.237779,307.739499 C478.352972,307.808284 478.452006,307.900687 478.534878,308.016709 C478.645376,308.171405 478.711674,308.330521 478.733773,308.494057 C478.755873,308.657593 478.724934,308.80566 478.640956,308.938256 C478.556978,309.070853 478.408912,309.159251 478.196757,309.20345 C477.790127,309.274168 477.407807,309.305107 477.049796,309.296267 C476.691785,309.287428 476.380182,309.283008 476.114989,309.283008 C476.114989,310.343781 476.119409,311.386875 476.128249,312.412289 C476.137088,313.437704 476.132668,314.520577 476.114989,315.660908 C476.114989,315.908422 476.031011,316.087428 475.863055,316.197925 C475.695099,316.308422 475.511674,316.354831 475.312779,316.337151 C475.113884,316.319472 474.930459,316.239914 474.762503,316.098477 C474.594547,315.957041 474.510569,315.762566 474.510569,315.515052 L474.500624,313.953726 L474.500624,313.953726 L474.497309,312.39903 L474.497309,309.283008 L474.442945,309.283538 C474.361619,309.284952 474.244934,309.289195 474.092889,309.296267 C473.902834,309.305107 473.695099,309.307317 473.469685,309.302897 C473.244271,309.298477 473.012227,309.280798 472.773552,309.249858 C472.534878,309.218919 472.327144,309.159251 472.150348,309.070853 C472.008912,309.000135 471.916094,308.896267 471.871895,308.759251 C471.827696,308.622234 471.825486,308.483008 471.865265,308.341571 C471.905044,308.200135 471.977972,308.067538 472.08405,307.943781 C472.190127,307.820024 472.322724,307.736046 472.48184,307.691847 C472.85311,307.669748 473.218304,307.654831 473.57742,307.647096 L474.111536,307.640881 Z M486.87521,307.565881 C487.003387,307.614499 487.118304,307.696267 487.219961,307.811184 C487.321619,307.926102 487.394547,308.058698 487.438746,308.208974 C487.491785,308.412289 487.553663,308.642124 487.624381,308.898477 C487.695099,309.154831 487.756978,309.384665 487.810017,309.58798 C487.907254,309.959251 487.995652,310.323892 488.07521,310.681903 C488.154768,311.039914 488.229906,311.404555 488.300624,311.775825 C488.424381,312.38577 488.532668,312.989085 488.625486,313.58577 C488.687365,313.98356 488.744332,314.384297 488.796389,314.78798 L488.87079,315.395715 L488.87079,315.488532 L488.842613,315.629002 C488.806149,315.764085 488.744823,315.883008 488.658635,315.98577 C488.543718,316.122787 488.411122,316.217814 488.260845,316.270853 C488.110569,316.323892 487.955873,316.326102 487.796757,316.277483 C487.637641,316.228864 487.505044,316.111737 487.398967,315.926102 C487.310569,315.775825 487.25974,315.618919 487.246481,315.455383 C487.233221,315.291847 487.217751,315.121682 487.200072,314.944886 L487.181656,314.758514 L487.181656,314.758514 L487.161766,314.588348 L487.140403,314.434389 C487.118304,314.288532 487.093994,314.118367 487.067475,313.923892 C486.987917,313.393505 486.899519,312.869748 486.802282,312.352621 C486.705044,311.835494 486.594547,311.316157 486.47079,310.79461 C486.293994,311.236599 486.126039,311.674168 485.966923,312.107317 C485.807807,312.540466 485.648691,312.978035 485.489575,313.420024 C485.365818,313.747096 485.244271,314.076378 485.124934,314.40787 C485.005597,314.739361 484.86637,315.059803 484.707254,315.369195 C484.654215,315.475273 484.565818,315.561461 484.442061,315.627759 C484.318304,315.694057 484.185707,315.731626 484.044271,315.740466 C483.902834,315.749306 483.770238,315.729416 483.646481,315.680798 C483.522724,315.632179 483.429906,315.550411 483.368028,315.435494 C482.987917,314.701792 482.612227,313.97251 482.240956,313.247649 C481.869685,312.522787 481.498414,311.793505 481.127144,311.059803 C481.082945,311.510632 481.043166,311.963671 481.007807,312.418919 L480.951453,313.100135 L480.88847,313.778035 C480.87963,313.919472 480.87079,314.091847 480.86195,314.295162 C480.85311,314.498477 480.837641,314.704002 480.815541,314.911737 C480.793442,315.119472 480.766923,315.318367 480.735983,315.508422 C480.705044,315.698477 480.654215,315.846544 480.583497,315.952621 C480.47742,316.129416 480.338193,316.244334 480.165818,316.297372 C479.993442,316.350411 479.825486,316.354831 479.66195,316.310632 C479.498414,316.266433 479.361398,316.175825 479.250901,316.038809 C479.140403,315.901792 479.089575,315.727207 479.098414,315.515052 C479.116094,315.152621 479.147033,314.79461 479.191232,314.441019 C479.235431,314.087428 479.27521,313.729416 479.310569,313.366986 C479.381287,312.580245 479.454215,311.797925 479.529354,311.020024 C479.604492,310.242124 479.67742,309.455383 479.748138,308.659803 C479.765818,308.429969 479.812227,308.217814 479.887365,308.023339 C479.962503,307.828864 480.123829,307.691847 480.371343,307.612289 C480.46858,307.57693 480.570238,307.563671 480.676315,307.57251 C480.782392,307.58135 480.87963,307.612289 480.968028,307.665328 C481.162503,307.789085 481.314989,307.959251 481.425486,308.175825 C481.535983,308.3924 481.639851,308.597925 481.737088,308.7924 C481.905044,309.110632 482.06858,309.431074 482.227696,309.753726 C482.386812,310.076378 482.545928,310.39682 482.705044,310.715052 C482.899519,311.121682 483.096204,311.521682 483.295099,311.915052 C483.493994,312.308422 483.699519,312.704002 483.911674,313.101792 C483.964713,312.969195 484.015541,312.836599 484.06416,312.704002 C484.112779,312.571405 484.163608,312.438809 484.216646,312.306212 C484.313884,312.076378 484.404492,311.844334 484.48847,311.610079 C484.572447,311.375825 484.658635,311.143781 484.747033,310.913947 C484.87079,310.613394 484.987917,310.317262 485.098414,310.025549 C485.208912,309.733836 485.317199,309.437704 485.423276,309.137151 C485.511674,308.916157 485.595652,308.677483 485.67521,308.421129 C485.754768,308.164776 485.882945,307.948201 486.05974,307.771405 C486.183497,307.638809 486.318304,307.559251 486.46416,307.532731 C486.610017,307.506212 486.747033,307.517262 486.87521,307.565881 Z M460.849258,232.990584 C473.404258,233.084584 484.111258,241.027584 488.165258,253.255584 C491.902258,264.524584 487.926258,277.597584 478.124258,284.876584 C464.508258,294.985584 450.716258,304.861584 436.968258,314.793584 C433.559258,317.255584 431.318258,316.527584 431.329258,312.640584 C431.386258,294.029584 430.757258,275.341584 432.261258,256.834584 C433.437258,242.381584 446.313258,232.882584 460.849258,232.990584 Z M398.685658,233.077084 C410.483658,233.913084 421.106658,243.367084 424.063658,255.831084 C424.515658,257.735084 424.431658,259.786084 424.440658,261.771084 C424.478658,269.754084 424.456658,277.739084 424.455658,285.723084 C424.454658,294.372084 424.519658,303.023084 424.392658,311.670084 C424.369658,313.176084 423.535658,314.670084 423.075658,316.170084 C421.736658,315.701084 420.196658,315.512084 419.088658,314.720084 C405.435658,304.965084 391.706658,295.311084 378.287658,285.243084 C367.561658,277.195084 363.795658,263.278084 368.436658,251.291084 C373.093658,239.270084 384.989658,232.107084 398.685658,233.077084 Z M270.408258,199.365184 C270.658258,202.505184 270.458258,205.681184 270.472258,208.840184 C270.472258,212.498184 270.567258,216.160184 270.442258,219.815184 C270.345258,222.621184 271.683258,223.791184 274.308258,223.755184 C281.947258,223.653184 289.623258,223.949184 297.213258,223.280184 C305.614258,222.540184 309.369258,217.125184 308.906258,207.910184 C308.433258,198.524184 304.339258,194.046184 295.657258,193.814184 C289.009258,193.637184 282.349258,193.933184 275.703258,193.715184 C271.488258,193.577184 270.088258,195.353184 270.408258,199.365184 Z" id="Combined-Shape" fill="#489F5A"></path>
        </g>
    </g>
</svg>