<svg width="24" height="25" viewBox="0 0 24 25" fill="none" xmlns="http://www.w3.org/2000/svg">
<path fill-rule="evenodd" clip-rule="evenodd" d="M22.676 0.87793H1.324C0.593 0.87793 0 1.47093 0 2.20193V23.5539C0 24.2859 0.593 24.8779 1.324 24.8779H12.818V15.5839H9.689V11.9629H12.818V9.28793C12.818 6.18893 14.712 4.50293 17.477 4.50293C18.802 4.50293 19.941 4.59993 20.273 4.64393V7.88393H18.352C16.852 7.88393 16.56 8.60493 16.56 9.65493V11.9659H20.144L19.679 15.5959H16.56V24.8779H22.675C23.408 24.8779 24 24.2859 24 23.5539V2.20193C24 1.47093 23.408 0.87793 22.676 0.87793Z" fill="#453283"/>
</svg>
