<svg width="66" height="42" viewBox="0 0 66 42" fill="none" xmlns="http://www.w3.org/2000/svg">
<g clip-path="url(#clip0_2330_752)">
<path fill-rule="evenodd" clip-rule="evenodd" d="M55.4684 1.375L56.5483 5.0109L55.2617 12.375H59.5521L58.2656 5.0109L59.3454 1.375H55.4684Z" fill="#FCE600"/>
<path fill-rule="evenodd" clip-rule="evenodd" d="M53.8652 12.375L55.1375 5.09259L53.625 0H61.1875L59.675 5.09259L60.9473 12.375H65.3125C65.6922 12.375 66 12.6828 66 13.0625C66 13.4422 65.6922 13.75 65.3125 13.75H61.1875H53.625H50.875V40.5625H65.3125C65.6922 40.5625 66 40.8703 66 41.25C66 41.6297 65.6922 41.9375 65.3125 41.9375H0.6875C0.307804 41.9375 0 41.6297 0 41.25C0 40.8703 0.307804 40.5625 0.6875 40.5625H8.25V35.75H6.875C5.35622 35.75 4.125 34.5188 4.125 33V19.9375C4.125 18.4187 5.35622 17.1875 6.875 17.1875H8.25V8.9375C8.25 7.41872 9.48122 6.1875 11 6.1875H35.75C37.2688 6.1875 38.5 7.41872 38.5 8.9375V12.375H53.8652ZM55.261 12.375H59.5515L58.2649 5.0109L59.3448 1.375H55.4677L56.5476 5.0109L55.261 12.375ZM49.5 40.5625V13.75H38.5V17.1875H40.5625C42.0813 17.1875 43.3125 18.4187 43.3125 19.9375V33C43.3125 34.5188 42.0813 35.75 40.5625 35.75H38.5V40.5625H49.5ZM37.125 40.5625H9.625V35.75H37.125V40.5625ZM37.125 13.75H33.6875C33.3078 13.75 33 13.4422 33 13.0625C33 12.6828 33.3078 12.375 33.6875 12.375H37.125V8.9375C37.125 8.17811 36.5094 7.5625 35.75 7.5625H11C10.2406 7.5625 9.625 8.17811 9.625 8.9375V17.1875H11.6875C13.2063 17.1875 14.4375 18.4187 14.4375 19.9375V26.125H33V19.9375C33 18.4187 34.2312 17.1875 35.75 17.1875H37.125V13.75ZM25.7711 17.9239L24.7989 16.9516L25.7711 15.9793C26.0396 15.7108 26.0396 15.2755 25.7711 15.007C25.5026 14.7386 25.0673 14.7386 24.7989 15.007L23.8266 15.9793L22.8543 15.007C22.5858 14.7386 22.1505 14.7386 21.882 15.007C21.6136 15.2755 21.6136 15.7108 21.882 15.9793L22.8543 16.9516L21.882 17.9239C21.6136 18.1923 21.6136 18.6276 21.882 18.8961C22.1505 19.1646 22.5858 19.1646 22.8543 18.8961L23.8266 17.9239L24.7989 18.8961C25.0673 19.1646 25.5026 19.1646 25.7711 18.8961C26.0396 18.6276 26.0396 18.1923 25.7711 17.9239ZM13.0625 27.5V19.9375C13.0625 19.1781 12.4469 18.5625 11.6875 18.5625H6.875C6.11561 18.5625 5.5 19.1781 5.5 19.9375V33C5.5 33.7594 6.11561 34.375 6.875 34.375H40.5625C41.3219 34.375 41.9375 33.7594 41.9375 33V19.9375C41.9375 19.1781 41.3219 18.5625 40.5625 18.5625H35.75C34.9906 18.5625 34.375 19.1781 34.375 19.9375V27.5H13.0625Z" fill="#453283"/>
</g>
<defs>
<clipPath id="clip0_2330_752">
<rect width="66" height="42" fill="white"/>
</clipPath>
</defs>
</svg>
