<svg width="164" height="150" viewBox="0 0 164 150" fill="none" xmlns="http://www.w3.org/2000/svg">
<g clip-path="url(#clip0_1554_39410)">
<circle opacity="0.1" cx="75.4062" cy="75" r="75" stroke="#332855" stroke-width="2.8"/>
<circle cx="33.3724" cy="135.165" r="14.5868" fill="#C2BECC" stroke="white" stroke-width="2.8"/>
<path d="M31.7259 28.5978C39.782 28.5978 46.3127 22.0671 46.3127 14.011C46.3127 5.95496 39.782 -0.575781 31.7259 -0.575781C23.6698 -0.575781 17.1391 5.95496 17.1391 14.011C17.1391 22.0671 23.6698 28.5978 31.7259 28.5978Z" fill="#C2BECC" stroke="white" stroke-width="2.8"/>
<path fill-rule="evenodd" clip-rule="evenodd" d="M29.2538 9.89014H38.7483C39.3793 9.89014 39.8526 10.4675 39.7289 11.0863L38.4805 17.328C38.387 17.7954 37.9766 18.1319 37.5 18.1319H27.6055L29.2538 9.89014Z" fill="white"/>
<path fill-rule="evenodd" clip-rule="evenodd" d="M29.6569 9.90344H23.9581L23.6133 11.4978H29.6569V9.90344Z" fill="white"/>
<path fill-rule="evenodd" clip-rule="evenodd" d="M30.3522 13.2135H24.6535L24.3086 14.8079H30.3522V13.2135Z" fill="white"/>
<path fill-rule="evenodd" clip-rule="evenodd" d="M32.0006 16.5104H26.3019L25.957 18.1048H32.0006V16.5104Z" fill="white"/>
<circle cx="150.406" cy="76.6482" r="14.5868" fill="#C2BECC" stroke="white" stroke-width="2.8"/>
<ellipse cx="150.406" cy="76.6481" rx="6.59341" ry="6.59341" fill="white"/>
<path d="M150.406 72.5273V77.4724H153.703" stroke="#C2BECC" stroke-width="2"/>
<path fill-rule="evenodd" clip-rule="evenodd" d="M75.4684 43.6812C58.1374 43.6812 44.0879 57.703 44.0879 74.9998C44.0879 92.2967 58.1374 106.319 75.4684 106.319C84.1347 106.319 91.9804 102.812 97.6593 97.144" fill="white"/>
<path d="M75.4684 43.6812C58.1374 43.6812 44.0879 57.703 44.0879 74.9998C44.0879 92.2967 58.1374 106.319 75.4684 106.319V106.319C84.1347 106.319 91.9804 102.812 97.6593 97.144" stroke="#332855" stroke-width="2.4"/>
<path fill-rule="evenodd" clip-rule="evenodd" d="M97.5886 97.2526C103.235 91.6601 106.725 83.9451 106.725 75.4253C106.725 58.3487 92.7031 44.5054 75.4062 44.5054V75.4253L97.5886 97.2526Z" fill="#FCE600"/>
<path d="M97.5886 97.1087C103.235 91.4441 106.725 83.6296 106.725 74.9998C106.725 57.703 92.7031 43.6812 75.4062 43.6812" stroke="#332855" stroke-width="2.4" stroke-dasharray="2.4"/>
<path d="M75.8183 74.9998V43.6812" stroke="#332855" stroke-width="2.4" stroke-linecap="round"/>
<path d="M75.5713 75.1647L97.6562 97.2496" stroke="#332855" stroke-width="2.4" stroke-linecap="round"/>
<ellipse cx="75.4055" cy="75.824" rx="14.011" ry="14.011" fill="white" stroke="#332855" stroke-width="2.4"/>
<path d="M71.3465 83V80.3H72.9881V76.412H71.3465V74.3168H72.9881V72.4376C72.9881 70.9832 73.4273 69.8024 74.3057 68.8952C75.1841 67.988 76.5305 67.5344 78.3449 67.5344C79.2233 67.5344 80.0729 67.6712 80.8937 67.9448C81.7289 68.204 82.4273 68.5712 82.9889 69.0464L81.8873 71.444C81.3545 70.9832 80.8001 70.6592 80.2241 70.472C79.6481 70.2848 79.0937 70.1912 78.5609 70.1912C77.7977 70.1912 77.2361 70.3784 76.8761 70.7528C76.5161 71.1128 76.3361 71.6312 76.3361 72.308V74.3168H79.7489V76.412H76.3361V80.3H82.6865V83H71.3465Z" fill="#332855"/>
<ellipse opacity="0.3" cx="75.4058" cy="75" rx="46.978" ry="46.978" stroke="#332855" stroke-width="2.8"/>
<path fill-rule="evenodd" clip-rule="evenodd" d="M28.4277 134.414C28.4277 134.374 28.4606 134.341 28.5012 134.341H38.2444C38.285 134.341 38.3178 134.374 38.3178 134.414V136.813C38.3178 139.544 36.1039 141.758 33.3728 141.758C30.6417 141.758 28.4277 139.544 28.4277 136.813V134.414Z" fill="white"/>
<path d="M31.0762 131.868C31.0762 130.6 32.1044 129.571 33.3729 129.571C34.6413 129.571 35.6696 130.6 35.6696 131.868V134.989H31.0762V131.868Z" stroke="white" stroke-width="2"/>
</g>
<defs>
<clipPath id="clip0_1554_39410">
<rect width="163.187" height="150" fill="white" transform="translate(0.40625)"/>
</clipPath>
</defs>
</svg>
