<svg width="161" height="155" viewBox="0 0 161 155" fill="none" xmlns="http://www.w3.org/2000/svg">
<circle opacity="0.1" cx="75.9945" cy="78.41" r="74.5902" stroke="#332855" stroke-width="2.8"/>
<circle opacity="0.3" cx="76.4046" cy="78.8196" r="44.6721" stroke="#332855" stroke-width="2.8"/>
<circle cx="31.7319" cy="16.1148" r="14.5148" fill="#C2BECC" stroke="white" stroke-width="2.8"/>
<path d="M26.8145 15.295C26.8145 12.5788 29.0163 10.377 31.7325 10.377C34.4486 10.377 36.6505 12.5788 36.6505 15.295V20.213H26.8145V15.295Z" fill="white"/>
<circle cx="31.7331" cy="20.2131" r="1.63934" fill="white"/>
<circle cx="144.847" cy="51.3604" r="14.5148" fill="#C2BECC" stroke="white" stroke-width="2.8"/>
<circle cx="25.9937" cy="134.967" r="14.5148" fill="#C2BECC" stroke="white" stroke-width="2.8"/>
<circle cx="25.9937" cy="135.787" r="14.5148" fill="#C2BECC" stroke="white" stroke-width="2.8"/>
<ellipse cx="23.5345" cy="132.918" rx="0.819672" ry="1.22951" fill="#C2BECC"/>
<ellipse cx="29.2728" cy="132.918" rx="0.819672" ry="1.22951" fill="#C2BECC"/>
<path fill-rule="evenodd" clip-rule="evenodd" d="M18.6172 135.787C19.9327 132.879 22.7553 130.869 26.0251 130.869C29.2949 130.869 32.1176 132.879 33.4331 135.787C32.1176 138.695 29.2949 140.705 26.0251 140.705C22.7553 140.705 19.9327 138.695 18.6172 135.787Z" fill="white"/>
<circle cx="26.0254" cy="135.787" r="2.45902" fill="#C2BECC"/>
<path d="M61.8219 57.3608C61.8219 54.8203 63.8814 52.7608 66.4219 52.7608H88.8481C91.3886 52.7608 93.4481 54.8203 93.4481 57.3608V99.4592C93.4481 102 91.3886 104.059 88.8481 104.059H66.4219C63.8814 104.059 61.8219 102 61.8219 99.4592V57.3608Z" fill="white" stroke="#332855" stroke-width="2.8"/>
<rect x="65.9195" y="83.0885" width="23.4295" height="8.67541" fill="#FCE600" stroke="#332855" stroke-width="2.8"/>
<rect x="65.9195" y="69.1539" width="23.4295" height="8.67541" fill="white" stroke="#332855" stroke-width="2.8"/>
<path fill-rule="evenodd" clip-rule="evenodd" d="M84.4995 115.24L82.0761 109.797L74.115 91.9162C73.3449 90.1864 74.1228 88.1597 75.8527 87.3895C77.4385 86.6835 79.3018 87.2741 80.1914 88.7647L88.8061 103.2L93.5169 102.766C96.9206 102.452 100.348 102.503 103.741 102.918L105.543 103.138C106.436 103.248 107.189 103.855 107.485 104.704L109.694 111.035C112.121 117.995 108.809 125.654 102.076 128.652C97.7418 130.581 92.7301 130.215 88.7232 127.675L84.8776 125.238L71.4931 119.126C72.8426 115.687 76.451 113.698 80.0791 114.393L84.4995 115.24Z" fill="white" stroke="#332855" stroke-width="2.8" stroke-linejoin="round"/>
<path d="M75.1758 57.508H80.0938" stroke="#332855" stroke-width="2.8" stroke-linecap="round"/>
<circle cx="145.256" cy="46.8527" r="2.86885" fill="white"/>
<path d="M140.748 55.0497C140.748 52.5599 142.766 50.5415 145.256 50.5415C147.746 50.5415 149.764 52.5599 149.764 55.0497V57.0989H140.748V55.0497Z" fill="white"/>
</svg>
