<svg width="164" height="154" viewBox="0 0 164 154" fill="none" xmlns="http://www.w3.org/2000/svg">
<circle opacity="0.1" cx="87.4707" cy="77" r="75" stroke="#332855" stroke-width="2.8"/>
<rect x="50.1344" y="66.8619" width="75.4967" height="20.2769" rx="10.1385" fill="#FCE600" stroke="#332855" stroke-width="2.8"/>
<circle opacity="0.3" cx="87.8824" cy="76.588" r="44.9176" stroke="#332855" stroke-width="2.8"/>
<circle opacity="0.5" cx="87.4716" cy="76.9999" r="20.6044" stroke="#332855" stroke-width="2.8"/>
<path fill-rule="evenodd" clip-rule="evenodd" d="M108.751 100.134L107.106 101.779L99.388 94.0611L97.1526 100.142C97.039 100.451 96.7988 100.697 96.4924 100.818C95.899 101.052 95.2281 100.761 94.9941 100.168L85.9306 76.7066M85.9307 76.7065L109.203 85.9589C109.796 86.193 110.087 86.8638 109.853 87.4572C109.732 87.7636 109.486 88.0038 109.177 88.1175L103.096 90.3529L110.814 98.0708L108.751 100.134" fill="white"/>
<path d="M109.741 101.124C110.287 100.577 110.287 99.691 109.741 99.1443C109.194 98.5975 108.308 98.5975 107.761 99.1443L109.741 101.124ZM107.106 101.779L106.116 102.769C106.663 103.316 107.549 103.316 108.096 102.769L107.106 101.779ZM99.388 94.0611L100.378 93.0711C100.04 92.7334 99.5536 92.5912 99.0872 92.6938C98.6207 92.7964 98.2387 93.1298 98.074 93.5781L99.388 94.0611ZM97.1526 100.142L98.4667 100.625L98.4667 100.625L97.1526 100.142ZM96.4924 100.818L95.9786 99.5158L96.4924 100.818ZM94.9941 100.168L93.6881 100.672L93.6917 100.681L94.9941 100.168ZM86.4479 75.4055C85.7294 75.1199 84.9154 75.4708 84.6298 76.1893C84.3441 76.9078 84.695 77.7218 85.4135 78.0074L86.4479 75.4055ZM109.203 85.9589L108.685 87.2599L108.689 87.2613L109.203 85.9589ZM109.853 87.4572L108.551 86.9435L109.853 87.4572ZM109.177 88.1175L109.66 89.4315L109.177 88.1175ZM103.096 90.3529L102.613 89.0388C102.165 89.2036 101.832 89.5856 101.729 90.052C101.626 90.5185 101.769 91.0051 102.106 91.3428L103.096 90.3529ZM110.814 98.0708L111.804 99.0607C112.067 98.7982 112.214 98.4421 112.214 98.0708C112.214 97.6995 112.067 97.3434 111.804 97.0808L110.814 98.0708ZM107.761 99.1442C107.214 99.6909 107.214 100.577 107.761 101.124C108.308 101.671 109.194 101.671 109.741 101.124L107.761 99.1442ZM107.761 99.1443L106.116 100.789L108.096 102.769L109.741 101.124L107.761 99.1443ZM108.096 100.789L100.378 93.0711L98.398 95.051L106.116 102.769L108.096 100.789ZM98.074 93.5781L95.8386 99.6592L98.4667 100.625L100.702 94.5441L98.074 93.5781ZM95.8386 99.6592C95.8627 99.5936 95.9136 99.5415 95.9786 99.5158L97.0061 102.12C97.6839 101.853 98.2153 101.309 98.4667 100.625L95.8386 99.6592ZM95.9786 99.5158C96.1044 99.4662 96.2467 99.5279 96.2964 99.6539L93.6917 100.681C94.2096 101.994 95.6935 102.638 97.0061 102.12L95.9786 99.5158ZM96.3 99.6631L87.2366 76.2021L84.6247 77.2111L93.6881 100.672L96.3 99.6631ZM85.4135 78.0074L108.685 87.2599L109.72 84.658L86.4479 75.4055L85.4135 78.0074ZM108.689 87.2613C108.563 87.2116 108.501 87.0693 108.551 86.9435L111.156 87.971C111.673 86.6583 111.029 85.1744 109.716 84.6566L108.689 87.2613ZM108.551 86.9435C108.577 86.8785 108.629 86.8276 108.694 86.8035L109.66 89.4315C110.344 89.1801 110.888 88.6488 111.156 87.971L108.551 86.9435ZM108.694 86.8035L102.613 89.0388L103.579 91.6669L109.66 89.4315L108.694 86.8035ZM102.106 91.3428L109.824 99.0607L111.804 97.0808L104.086 89.3629L102.106 91.3428ZM109.824 97.0808L107.761 99.1442L109.741 101.124L111.804 99.0607L109.824 97.0808Z" fill="#332855"/>
<circle cx="145.988" cy="120.681" r="14.5868" fill="#C2BECC" stroke="white" stroke-width="2.8"/>
<path fill-rule="evenodd" clip-rule="evenodd" d="M140.317 119.534C139.66 119.534 139.365 118.711 139.872 118.294L145.987 113.263L152.103 118.294C152.61 118.711 152.315 119.534 151.658 119.534H150.655V123.65C150.655 125.196 149.402 126.45 147.855 126.45H144.187C142.64 126.45 141.387 125.196 141.387 123.65V119.534H140.317Z" fill="white"/>
<circle cx="16.5911" cy="58.8685" r="14.5868" fill="#C2BECC" stroke="white" stroke-width="2.8"/>
<path fill-rule="evenodd" clip-rule="evenodd" d="M9.99805 56.7476C9.99805 55.643 10.8935 54.7476 11.998 54.7476H21.1849C22.2894 54.7476 23.1849 55.643 23.1849 56.7476V62.6377C23.1849 63.7422 22.2894 64.6377 21.1849 64.6377H11.998C10.8935 64.6377 9.99805 63.7422 9.99805 62.6377V56.7476Z" fill="white"/>
<ellipse cx="13.2949" cy="56.808" rx="0.824176" ry="1.23626" fill="#C2BECC"/>
<ellipse cx="19.8867" cy="56.808" rx="0.824176" ry="1.23626" fill="#C2BECC"/>
<rect x="12.4707" y="52.2749" width="1.64835" height="4.12088" rx="0.824176" fill="white"/>
<rect width="1.64835" height="4.12088" rx="0.824176" transform="matrix(-1 0 0 1 20.7129 52.2749)" fill="white"/>
<circle cx="143.515" cy="29.198" r="14.5868" fill="#C2BECC" stroke="white" stroke-width="2.8"/>
<circle cx="39.2558" cy="121.094" r="2.06044" fill="white" stroke="white"/>
<ellipse cx="143.447" cy="29.4375" rx="4.87687" ry="6.00879" fill="white" stroke="white" stroke-width="1.19"/>
<ellipse cx="143.447" cy="27.6363" rx="1.79674" ry="1.73251" fill="#C2BECC"/>
</svg>
