<svg width="24" height="25" viewBox="0 0 24 25" fill="none" xmlns="http://www.w3.org/2000/svg">
<path fill-rule="evenodd" clip-rule="evenodd" d="M12 0.87793C8.74 0.87793 8.333 0.89293 7.053 0.94993C5.775 1.00993 4.905 1.21093 4.14 1.50793C3.351 1.81393 2.681 2.22493 2.014 2.89193C1.347 3.55893 0.935 4.22793 0.63 5.01793C0.333 5.78293 0.131 6.65293 0.072 7.93093C0.012 9.21093 0 9.61793 0 12.8779C0 16.1379 0.015 16.5449 0.072 17.8249C0.132 19.1019 0.333 19.9729 0.63 20.7379C0.936 21.5259 1.347 22.1969 2.014 22.8639C2.681 23.5299 3.35 23.9429 4.14 24.2479C4.906 24.5439 5.776 24.7469 7.053 24.8059C8.333 24.8659 8.74 24.8779 12 24.8779C15.26 24.8779 15.667 24.8629 16.947 24.8059C18.224 24.7459 19.095 24.5439 19.86 24.2479C20.648 23.9419 21.319 23.5299 21.986 22.8639C22.652 22.1969 23.065 21.5289 23.37 20.7379C23.666 19.9729 23.869 19.1019 23.928 17.8249C23.988 16.5449 24 16.1379 24 12.8779C24 9.61793 23.985 9.21093 23.928 7.93093C23.868 6.65393 23.666 5.78193 23.37 5.01793C23.064 4.22893 22.652 3.55893 21.986 2.89193C21.319 2.22493 20.651 1.81293 19.86 1.50793C19.095 1.21093 18.224 1.00893 16.947 0.94993C15.667 0.88993 15.26 0.87793 12 0.87793ZM12.0002 3.03781C15.2032 3.03781 15.5852 3.05381 16.8502 3.10881C18.0202 3.16381 18.6552 3.35781 19.0772 3.52381C19.6392 3.74081 20.0372 4.00081 20.4592 4.41981C20.8782 4.83981 21.1382 5.23881 21.3552 5.80081C21.5192 6.22281 21.7152 6.85781 21.7682 8.02781C21.8252 9.29381 21.8382 9.67381 21.8382 12.8778C21.8382 16.0818 21.8232 16.4628 21.7642 17.7278C21.7032 18.8978 21.5082 19.5328 21.3432 19.9548C21.1192 20.5168 20.8642 20.9148 20.4442 21.3368C20.0252 21.7558 19.6202 22.0158 19.0642 22.2328C18.6442 22.3968 17.9992 22.5928 16.8292 22.6458C15.5552 22.7028 15.1802 22.7158 11.9702 22.7158C8.75923 22.7158 8.38423 22.7008 7.11123 22.6418C5.94023 22.5808 5.29523 22.3858 4.87523 22.2208C4.30623 21.9968 3.91523 21.7418 3.49623 21.3218C3.07523 20.9028 2.80623 20.4978 2.59623 19.9418C2.43123 19.5218 2.23723 18.8768 2.17623 17.7068L2.17383 17.6395C2.13066 16.4319 2.11523 16.0003 2.11523 12.8628C2.11523 9.72849 2.13062 9.29291 2.17366 8.07467L2.17623 8.00181C2.23723 6.83181 2.43123 6.18781 2.59623 5.76781C2.80623 5.19781 3.07523 4.80781 3.49623 4.38681C3.91523 3.96781 4.30623 3.69781 4.87523 3.48881C5.29523 3.32281 5.92623 3.12781 7.09623 3.06781L7.15401 3.06577C8.38334 3.02236 8.79522 3.00781 11.9552 3.00781L12.0002 3.03781ZM5.83789 12.8778C5.83789 9.47582 8.59489 6.71582 11.9999 6.71582C15.4019 6.71582 18.1619 9.47282 18.1619 12.8778C18.1619 16.2798 15.4049 19.0398 11.9999 19.0398C8.59789 19.0398 5.83789 16.2828 5.83789 12.8778ZM12 16.8779C9.79 16.8779 8 15.0879 8 12.8779C8 10.6679 9.79 8.87793 12 8.87793C14.21 8.87793 16 10.6679 16 12.8779C16 15.0879 14.21 16.8779 12 16.8779ZM18.4058 7.91269C19.1998 7.91269 19.8458 7.26769 19.8458 6.47269C19.8458 5.67869 19.1988 5.03269 18.4058 5.03369C17.6118 5.03369 16.9658 5.67869 16.9658 6.47269C16.9658 7.26669 17.6108 7.91269 18.4058 7.91269Z" fill="#453283"/>
</svg>
