<svg xmlns="http://www.w3.org/2000/svg" viewBox="0 0 134.57 110.45"><defs><style>.cls-1{fill:#d4c2ff;}.cls-2{fill:#b6abf5;}.cls-3{fill:#27246b;}.cls-4{fill:#fff;}.cls-5{fill:#f5cb08;}.cls-6,.cls-7{fill:none;stroke-linecap:round;stroke-linejoin:round;}.cls-6{stroke:#27246b;}.cls-7{stroke:#fff;}</style></defs><title>4Asset 4</title><g id="Layer_2" data-name="Layer 2"><g id="Layer2"><path class="cls-1" d="M101.58,60.2A49.31,49.31,0,1,1,62.49,11.94c.37.07.74.15,1.1.24a48.81,48.81,0,0,1,11.73,4.41c.34.17.67.36,1,.54A49.29,49.29,0,0,1,101.58,60.2Z"/><path class="cls-2" d="M103.5,110.45H1a1,1,0,0,1,0-2H103.5a1,1,0,0,1,0,2Z"/><ellipse class="cls-3" cx="75.77" cy="70.65" rx="38.27" ry="38.25"/><ellipse class="cls-4" cx="75.77" cy="70.65" rx="33.03" ry="33.01"/><path class="cls-5" d="M104.42,87.07c3.15-5.06,4.38-10,4.38-16.42a33,33,0,0,0-33-33h-.12l.12,33Z"/><path class="cls-3" d="M77.66,70.65a1.89,1.89,0,1,1-1.89-1.89A1.89,1.89,0,0,1,77.66,70.65Z"/><path class="cls-3" d="M76.71,41.73a.95.95,0,0,1-1.89,0,.95.95,0,1,1,1.89,0Z"/><path class="cls-3" d="M76.71,99.57a.95.95,0,1,1-.94-.94A.94.94,0,0,1,76.71,99.57Z"/><path class="cls-3" d="M104.71,71.59a.94.94,0,1,1,.94-.94A.95.95,0,0,1,104.71,71.59Z"/><path class="cls-3" d="M46.83,71.59a.94.94,0,1,1,.94-.94A.94.94,0,0,1,46.83,71.59Z"/><path class="cls-3" d="M100.83,56.16a.94.94,0,1,1,.31-1.3A.94.94,0,0,1,100.83,56.16Z"/><path class="cls-3" d="M51.7,86.74a.94.94,0,1,1-1-1.6.94.94,0,1,1,1,1.6Z"/><path class="cls-3" d="M90.27,95.7a.94.94,0,1,1,1.3.3A.94.94,0,0,1,90.27,95.7Z"/><path class="cls-3" d="M59.67,46.6a.94.94,0,1,1,1.3.3A1,1,0,0,1,59.67,46.6Z"/><path class="cls-3" d="M90.59,45.79a.94.94,0,1,1-.37-1.28A.94.94,0,0,1,90.59,45.79Z"/><path class="cls-3" d="M62.6,96.42a.95.95,0,1,1-.37-1.28A.95.95,0,0,1,62.6,96.42Z"/><path class="cls-3" d="M100.64,85.47a1,1,0,0,1-.37-1.29.94.94,0,0,1,1.65.92A1,1,0,0,1,100.64,85.47Z"/><path class="cls-3" d="M50,57.49a.95.95,0,1,1,1.29-.37A1,1,0,0,1,50,57.49Z"/><path class="cls-3" d="M75.32,43.89l-.23,32.54h1.19l.24-32.55a.61.61,0,0,0-.6-.6h0A.61.61,0,0,0,75.32,43.89Z"/><path class="cls-3" d="M96.22,81.47,72.73,68.3l-.58,1L95.64,82.51a.59.59,0,0,0,.81-.23h0A.59.59,0,0,0,96.22,81.47Z"/><rect class="cls-3" x="68.34" y="21.95" width="14.86" height="6.66" rx="0.69"/><rect class="cls-3" x="71.51" y="25.4" width="8.76" height="10.95"/><rect class="cls-3" x="47.4" y="33.5" width="10.87" height="4.19" rx="0.47" transform="translate(-10.49 28.61) rotate(-27.67)"/><rect class="cls-3" x="51.99" y="35.73" width="5.34" height="6.68" transform="translate(-11.89 29.85) rotate(-27.67)"/><rect class="cls-3" x="93.27" y="32.89" width="10.87" height="4.19" rx="0.47" transform="translate(169.87 111.8) rotate(-152.33)"/><rect class="cls-3" x="94.21" y="35.12" width="5.34" height="6.68" transform="translate(164.81 117.51) rotate(-152.33)"/><line class="cls-6" x1="75.82" y1="0.5" x2="75.82" y2="18.2"/><line class="cls-6" x1="62.6" y1="10.44" x2="65.05" y2="19.42"/><line class="cls-6" x1="46.67" y1="9.35" x2="54.63" y2="23.17"/><line class="cls-6" x1="40.14" y1="23.37" x2="46.87" y2="29.91"/><line class="cls-6" x1="86.29" y1="19.29" x2="88.53" y2="10.3"/><line class="cls-6" x1="96.09" y1="22.96" x2="104.87" y2="9.35"/><line class="cls-6" x1="104.87" y1="29.7" x2="111.2" y2="23.37"/><line class="cls-6" x1="111.4" y1="38.07" x2="125.9" y2="29.5"/><line class="cls-6" x1="115.08" y1="48.28" x2="125.08" y2="45.63"/><line class="cls-6" x1="116.3" y1="58.9" x2="134.07" y2="58.49"/><line class="cls-6" x1="39.93" y1="38.28" x2="25.64" y2="29.91"/><line class="cls-6" x1="36.05" y1="48.49" x2="27.07" y2="45.63"/><line class="cls-6" x1="34.42" y1="59.11" x2="17.47" y2="58.9"/><line class="cls-6" x1="23.3" y1="71.37" x2="31.44" y2="70.39"/><line class="cls-6" x1="33.69" y1="81.71" x2="18.2" y2="87.58"/><line class="cls-6" x1="119.29" y1="71.8" x2="128.24" y2="73.28"/><line class="cls-6" x1="116.26" y1="82.88" x2="131.26" y2="91.26"/><path class="cls-4" d="M76.32,17.13V18.2a.51.51,0,0,1-.5.5.5.5,0,0,1-.5-.5V16.59C75.66,16.76,76,17,76.32,17.13Z"/><path class="cls-4" d="M65.18,19.9a.3.3,0,0,1-.13,0,.49.49,0,0,1-.48-.37l-2.08-7.61c.37.07.74.15,1.1.24l1.94,7.11A.48.48,0,0,1,65.18,19.9Z"/><line class="cls-7" x1="46.67" y1="9.35" x2="54.63" y2="23.17"/><line class="cls-7" x1="40.14" y1="23.37" x2="46.87" y2="29.91"/><line class="cls-7" x1="39.93" y1="38.28" x2="25.64" y2="29.91"/><line class="cls-7" x1="36.05" y1="48.49" x2="27.07" y2="45.63"/><line class="cls-7" x1="34.42" y1="59.11" x2="17.47" y2="58.9"/><line class="cls-7" x1="23.3" y1="71.37" x2="31.44" y2="70.39"/><line class="cls-7" x1="33.69" y1="81.71" x2="18.2" y2="87.58"/></g></g></svg>