<svg width="118" height="66" viewBox="0 0 118 66" fill="none" xmlns="http://www.w3.org/2000/svg">
<path d="M2.50219 35.562C2.53992 35.6106 2.57764 35.6593 2.61536 35.6958C11.3155 48.3754 26.2127 59.0118 42.8101 61.9551C55.6068 64.2308 69.4845 61.7182 79.7411 56.6349L79.9593 56.526C79.9741 56.3225 80.0043 56.1176 80.0508 55.9124C80.4029 54.3634 81.5972 53.2017 83.0682 52.7781C82.2259 54.1214 82.339 56.1303 83.5082 57.8366C84.4009 59.1314 85.6833 59.9543 86.9531 60.1843C85.9724 60.8982 84.6775 61.2129 83.3825 60.9346C82.4363 60.7359 81.6311 60.2561 81.0387 59.606L80.959 59.5162L80.7766 59.6104C74.3902 62.8725 68.8266 64.3496 62.0199 65.4131C49.0186 67.4442 32.8213 64.0581 21.53 57.5025C12.7786 52.4308 5.35707 45.5298 0 36.535C0.0125738 36.4498 0.0125738 36.3769 0.0125738 36.3039C0.0502954 35.3552 1.60945 34.4066 2.50219 35.562ZM81.1195 57.8487C81.3206 59.2887 82.8042 60.4384 84.3003 60.3295C84.4386 60.3295 84.602 60.2811 84.6523 60.1601C84.7026 60.0148 84.5895 59.8696 84.4637 59.7849C84.1746 59.5913 83.8226 59.5308 83.4957 59.434C82.5527 59.1677 81.7104 58.599 81.1195 57.8487ZM98.8949 20.7478C99.423 21.3194 100.869 22.5843 102.353 23.1681C103.509 24.3478 103.472 26.829 102.843 29.6142C102.441 31.3899 101.649 35.0751 100.819 37.4711C102.654 32.8129 103.572 28.0209 104 23.533C103.761 23.5086 103.572 23.4843 103.409 23.4478C105.257 23.6911 106.489 23.2411 108.25 23.0465C108.501 23.1802 108.539 23.4965 108.539 23.7762C108.539 24.4086 108.464 25.0411 108.313 25.6614C108.525 24.8289 108.757 23.9292 108.903 23.0733L108.953 22.7566L108.994 22.735C109.426 22.5051 109.866 22.2676 110.005 22.3829L110.023 22.4019C110.073 22.4383 110.123 22.487 110.174 22.5235C110.299 22.9127 110.312 23.5816 110.325 23.9465C110.337 24.5303 110.35 25.0046 110.299 25.4789C110.023 28.2033 109.897 30.6723 109.205 33.3237C110.287 30.1858 110.903 26.8898 111.041 23.5816C111.041 23.4843 111.092 23.1681 111.029 23.1438C110.941 23.0951 110.903 23.0708 110.865 23.0465C111.079 23.1802 111.305 23.2775 111.582 23.3262C112.651 23.4478 113.757 23.0343 114.7 23.1316C115.895 23.2532 115.882 24.956 117.416 24.1046C118.686 23.3992 117.517 29.3223 117.328 29.9912C116.637 32.3872 116.196 34.9534 115.165 37.24C112.877 42.2874 109.947 46.9456 106.125 51.0078C102.353 55.0093 95.9526 58.962 90.4453 60.0931C86.145 60.9688 80.5119 56.8579 84.1206 51.7376C86.8114 47.9186 91.6524 45.7537 94.5192 41.8739C97.4615 37.8968 99.0835 33.7251 99.3098 28.8114C99.3601 27.729 98.8949 20.7478 98.8949 20.7478ZM92.0296 47.7361L91.7295 47.9834C89.9045 49.4422 87.6519 50.4701 85.8055 51.9565C85.3151 52.3578 84.8373 52.82 84.5481 53.3795C84.2715 53.939 84.1961 54.6322 84.4978 55.1917C84.5356 53.9876 84.8122 53.5011 85.3151 52.893C85.8432 52.2606 86.6605 51.7619 87.3395 51.2997C88.9741 50.1808 90.5962 49.0618 92.0296 47.7361ZM93.3372 46.4104C92.9223 46.8726 92.4822 47.3105 92.0296 47.7361C92.5074 47.3348 92.9475 46.8969 93.3372 46.4104ZM0.817299 35.7323C0.402363 36.0363 0.528101 36.6566 0.716709 37.1309C1.45857 38.9675 2.55249 40.6459 3.93561 42.081C2.80397 40.5851 1.74776 38.9675 1.42084 37.1431C1.3957 36.9363 1.38312 36.6809 1.55916 36.5593C1.68489 36.4742 1.86093 36.4498 1.98667 36.5228C2.1124 36.5958 2.50219 36.8026 2.59021 36.9242C2.60278 36.6201 2.26329 35.9025 1.99924 35.7323C1.5843 35.4647 1.21966 35.4404 0.817299 35.7323ZM100.819 37.4711L100.677 37.8266C100.535 38.1818 100.391 38.5353 100.24 38.8819C100.429 38.5049 100.63 38.0184 100.819 37.4711ZM93.8648 10.993C95.5536 11.4305 96.8517 12.8162 97.5701 14.3599C98.2145 15.7693 98.4596 17.3206 98.67 18.8658L98.7295 19.3069C96.9147 19.3069 95.0873 18.9788 93.3985 18.3467C92.2264 17.9091 91.0795 17.3014 90.2855 16.3533C89.4915 15.4052 89.0882 14.0803 89.5167 12.9377C90.0965 11.3333 92.1634 10.5554 93.8648 10.993ZM91.1551 12.1963C90.9283 12.3422 90.7014 12.5488 90.6762 12.8162C90.6384 13.2538 91.1425 13.5576 91.5836 13.5455C92.0373 13.5333 92.4406 13.3024 92.8565 13.1565C94.0412 12.7433 95.4528 13.0471 96.335 13.8858C95.8435 13.0107 95.0621 12.2814 94.1042 11.9289C93.1464 11.5764 92.0121 11.6493 91.1551 12.1963ZM107.224 8.89915C107.568 9.01978 107.861 9.23691 108.064 9.52642C108.713 10.4432 108.191 11.7581 107.263 12.4095C106.334 13.0609 105.15 13.2418 104.018 13.3866C103.941 12.3009 103.992 11.2635 104.463 10.2743C104.934 9.28516 106.155 8.5252 107.224 8.89915ZM106.155 9.16453C105.977 9.1766 105.736 9.28516 105.57 9.41786C105.29 9.62293 105.176 9.87625 105.265 10.202C105.392 9.94863 105.723 9.68324 106.334 9.57468C106.766 9.5023 107.224 9.67118 107.403 9.90038C107.453 9.69531 107.11 9.38167 106.932 9.26104C106.728 9.14041 106.41 9.14041 106.155 9.16453ZM99.1454 0.138567C100.091 0.515371 100.62 1.53639 100.696 2.52094C100.759 3.51765 100.444 4.47789 100.141 5.42598C99.9478 5.99321 99.7602 6.56584 99.5744 7.13668L99.2967 7.99068L99.2463 7.91775C98.2506 7.11552 97.2172 6.30113 96.524 5.2315C95.8308 4.17402 95.4906 2.8005 95.9821 1.63363C96.4736 0.466751 97.9355 -0.335477 99.1454 0.138567ZM97.7717 0.418131C97.6583 0.503216 97.5701 0.63692 97.5701 0.770625C97.5701 1.17174 98.175 1.22036 98.5909 1.25682C99.3751 1.32773 100.112 2.03053 100.013 2.77323L100.002 2.83697L100.04 2.78835C100.015 2.11983 99.9898 1.40268 99.5865 0.8314C99.1959 0.272271 98.301 -0.019448 97.7717 0.418131ZM116.498 25.2295C116.611 25.2673 116.586 25.2547 116.725 25.2547C116.813 25.2547 116.913 25.1918 116.989 25.1792C116.838 36.9616 109.897 49.5487 101.586 55.8611C110.739 47.8134 116.41 35.6287 116.498 25.2295Z" fill="#655995"/>
<path fill-rule="evenodd" clip-rule="evenodd" d="M23.5063 31.1346C23.3984 30.6725 23.2258 30.2862 22.9917 29.9828C22.6712 29.5687 22.2645 29.2603 21.7825 29.0659C20.7792 28.6624 19.4271 28.6653 18.2548 29.0942C17.6689 29.3087 17.1341 29.6298 16.6647 30.0484C16.3319 30.3457 16.0264 30.7094 15.7534 31.1346H23.5063ZM26.792 29.5014C27.0983 30.4285 27.2133 31.4914 27.1336 32.6604C27.1114 33.221 26.8535 33.5777 26.6408 33.7758C26.3397 34.0562 25.9569 34.1985 25.503 34.1985H14.8211C14.7128 35.2761 15.0013 36.1598 15.6967 36.8897C16.4814 37.7139 17.6078 38.1317 19.0443 38.1317C20.3662 38.1317 21.6587 37.738 22.8858 36.9622C23.6539 36.4993 24.3359 36.5715 24.8155 37.1591L24.9944 37.4157C25.2432 37.752 25.3197 38.1374 25.2162 38.5528C25.1162 38.9534 24.8453 39.3315 24.4108 39.6772C22.6696 40.9627 20.6796 41.6089 18.4829 41.6089C17.2416 41.6089 16.1069 41.4014 15.1108 40.9926C14.1094 40.5817 13.2791 39.9954 12.6427 39.2507C12.006 38.5061 11.5612 37.6294 11.3212 36.6457C11.0824 35.6657 11.0459 34.6147 11.2133 33.5228C11.3807 32.4304 11.7453 31.3696 12.2976 30.3699C12.8506 29.3681 13.5591 28.4828 14.403 27.7394C15.2456 26.9964 16.2156 26.4055 17.2864 25.9832C18.3564 25.5617 19.4625 25.348 20.5749 25.348C21.5068 25.348 22.3998 25.4989 23.2298 25.7966C24.0657 26.0972 24.798 26.5597 25.407 27.1715C26.0184 27.7862 26.4841 28.5698 26.792 29.5014ZM52.9977 20.0872C53.8693 20.0872 54.3347 20.5791 54.2748 21.4365L53.1122 39.5925C53.064 40.0652 52.8939 40.4355 52.6058 40.709C52.3117 40.9885 51.9285 41.1306 51.4672 41.1306H50.5189C49.6293 41.1306 49.1532 40.6387 49.2131 39.7813L50.1561 26.8211L42.7621 39.813C42.3578 40.5062 41.756 40.8704 41.0196 40.8704H40.5311C39.8136 40.8704 39.337 40.5062 39.1523 39.817L35.8446 26.8146L32.6813 39.7809C32.4706 40.6387 31.8504 41.1306 30.9792 41.1306H30.0309C29.574 41.1306 29.2323 40.9913 29.0164 40.7162C28.7997 40.4419 28.7395 40.0688 28.8376 39.6078L33.4236 21.4337C33.6332 20.5791 34.2426 20.0872 35.0959 20.0872H36.6188C37.3599 20.0872 37.838 20.4554 38.0009 21.1514L41.663 35.3204L49.7618 21.1442C50.1925 20.4474 50.7919 20.0872 51.5035 20.0872H52.9977ZM65.0902 28.8229C64.6801 28.8229 64.2217 28.9054 63.7279 29.0678C63.2451 29.2265 62.7559 29.5021 62.2747 29.8872C61.7911 30.2748 61.3419 30.7858 60.94 31.4055C60.5468 32.0129 60.2871 32.715 60.1686 33.4918C60.0502 34.2689 60.1224 35.0449 60.3838 35.7979C60.6408 36.5406 61.079 37.1201 61.6873 37.5212C62.93 38.341 64.4152 38.3201 65.8691 37.5212C66.599 37.1205 67.2145 36.5406 67.6981 35.7979C68.1892 35.0441 68.4983 34.2681 68.6167 33.4918C68.7352 32.715 68.6633 31.9333 68.4031 31.1684C68.1473 30.4179 67.7056 29.8339 67.0897 29.4332C66.4668 29.0284 65.7941 28.8229 65.0902 28.8229ZM70.8748 27.7349C71.497 28.4788 71.9423 29.3581 72.1985 30.3482C72.4551 31.3407 72.5021 32.3881 72.3382 33.4622C72.1716 34.5556 71.8037 35.6133 71.2447 36.6058C70.6861 37.5963 69.9728 38.4756 69.124 39.2191C68.2768 39.9606 67.3231 40.5504 66.2895 40.9716C65.2517 41.3944 64.1925 41.6089 63.1409 41.6089C62.0896 41.6089 61.1003 41.3997 60.2002 40.9872C59.2997 40.575 58.5339 39.9836 57.9232 39.2298C57.3136 38.4776 56.8747 37.5946 56.6192 36.6058C56.363 35.6141 56.3172 34.5564 56.4842 33.4622C56.6481 32.3873 57.0144 31.3399 57.5734 30.3482C58.1308 29.359 58.8386 28.4801 59.6775 27.7369C60.5144 26.995 61.4587 26.4049 62.4844 25.9828C64.5411 25.1368 66.7562 25.1364 68.5749 25.982C69.4805 26.404 70.2546 26.9938 70.8748 27.7349ZM91.3612 29.8435C91.5663 30.827 91.5863 31.8754 91.4211 32.9598C91.2558 34.0443 90.9158 35.0927 90.4109 36.0758C89.9045 37.0625 89.2579 37.9389 88.4906 38.6808C87.7197 39.4251 86.8327 40.0174 85.854 40.4405C84.8726 40.8644 83.8329 41.0794 82.7629 41.0794C81.7099 41.0794 80.7359 40.8537 79.8682 40.4098C79.283 40.1102 78.775 39.6896 78.35 39.1533L77.3245 45.8798C77.2568 46.3233 77.0731 46.683 76.7775 46.9483C76.4804 47.214 76.1141 47.348 75.6871 47.348H74.8371C74.4133 47.348 74.0847 47.216 73.8608 46.956C73.6318 46.6899 73.5507 46.3282 73.6192 45.8798L76.5497 26.6617C76.6178 26.2138 76.8094 25.8516 77.1191 25.5855C77.4221 25.3255 77.7908 25.1935 78.215 25.1935H79.0654C79.4928 25.1935 79.8182 25.3276 80.0331 25.5924C80.248 25.8585 80.3223 26.2182 80.255 26.6617L80.2342 26.7958C80.8229 26.2599 81.4592 25.8393 82.1353 25.5397C83.1383 25.095 84.1812 24.8698 85.2342 24.8698C86.3038 24.8698 87.2777 25.0791 88.1297 25.4923C88.9832 25.9064 89.6912 26.4942 90.235 27.2389C90.7765 27.9808 91.1554 28.8572 91.3612 29.8435ZM87.7157 32.9598C87.8625 31.9964 87.7984 31.1532 87.5253 30.453C87.2525 29.7556 86.8398 29.2173 86.2979 28.8539C85.756 28.4905 85.0788 28.3066 84.2854 28.3066C83.0077 28.3066 81.9279 28.7366 80.9846 29.6211C80.0331 30.5139 79.4613 31.6077 79.237 32.9652C79.0489 34.312 79.287 35.4058 79.9662 36.2982C80.6399 37.1831 81.5883 37.6131 82.8664 37.6131C83.6601 37.6131 84.3937 37.4288 85.0457 37.0658C85.6982 36.7028 86.2751 36.1645 86.7606 35.4663C87.2474 34.7665 87.5685 33.9229 87.7157 32.9598Z" fill="#655995" stroke="#655995" stroke-width="0.79043"/>
</svg>
