<svg width="60" height="46" viewBox="0 0 60 46" fill="none" xmlns="http://www.w3.org/2000/svg">
<rect y="44.25" width="60" height="1.25" rx="0.625" fill="#453283"/>
<rect x="7.5" y="23" width="45" height="5.625" rx="1.875" stroke="#453283" stroke-width="1.25"/>
<rect x="15.625" y="1.125" width="28.75" height="16.25" rx="1.875" stroke="#453283" stroke-width="1.25"/>
<path d="M20.625 23C20.2798 23 20 22.7202 20 22.375C20 21.3395 20.8395 20.5 21.875 20.5H38.125C39.1605 20.5 40 21.3395 40 22.375C40 22.7202 39.7202 23 39.375 23H20.625Z" stroke="#453283" stroke-width="1.25"/>
<path d="M24.1836 9.07116C24.2757 8.10931 25.0837 7.375 26.05 7.375H33.3637C34.33 7.375 35.138 8.10931 35.2302 9.07116L36.907 26.5712C37.0125 27.6723 36.1467 28.625 35.0405 28.625H24.3732C23.267 28.625 22.4012 27.6723 22.5067 26.5712L24.1836 9.07116Z" fill="#FCE600" stroke="#453283" stroke-width="1.25"/>
<path d="M24.5604 34.875C23.5657 34.875 22.7442 34.0983 22.6884 33.1052L22.6805 32.9649C22.6786 32.9324 22.6777 32.8998 22.6777 32.8672C22.6777 31.905 23.4578 31.125 24.4199 31.125H35.5814C35.614 31.125 35.6466 31.1259 35.6791 31.1277C36.6398 31.1817 37.3748 32.0043 37.3209 32.9649L37.313 33.1052C37.2572 34.0983 36.4356 34.875 35.4409 34.875H24.5604Z" fill="#FCE600" stroke="#453283" stroke-width="1.25"/>
<path d="M15.625 44.875V28.625H44.375V44.875H15.625Z" stroke="#453283" stroke-width="1.25"/>
<path d="M22.5 44.875V43C22.5 41.9645 23.3395 41.125 24.375 41.125H35.625C36.6605 41.125 37.5 41.9645 37.5 43V44.875H22.5Z" stroke="#453283" stroke-width="1.25"/>
<rect x="29.375" y="16.125" width="1.25" height="29.375" rx="0.625" fill="#453283"/>
</svg>
